<svg id="my-svg" width="100%" xmlns="http://www.w3.org/2000/svg" xmlns:xlink="http://www.w3.org/1999/xlink" class="classDiagram" style="max-width: 652.5px; background-color: white;" viewBox="-35 0 652.5 1198" role="graphics-document document" aria-roledescription="class"><style>#my-svg{font-family:"trebuchet ms",verdana,arial,sans-serif;font-size:16px;fill:#333;}@keyframes edge-animation-frame{from{stroke-dashoffset:0;}}@keyframes dash{to{stroke-dashoffset:0;}}#my-svg .edge-animation-slow{stroke-dasharray:9,5!important;stroke-dashoffset:900;animation:dash 50s linear infinite;stroke-linecap:round;}#my-svg .edge-animation-fast{stroke-dasharray:9,5!important;stroke-dashoffset:900;animation:dash 20s linear infinite;stroke-linecap:round;}#my-svg .error-icon{fill:#552222;}#my-svg .error-text{fill:#552222;stroke:#552222;}#my-svg .edge-thickness-normal{stroke-width:1px;}#my-svg .edge-thickness-thick{stroke-width:3.5px;}#my-svg .edge-pattern-solid{stroke-dasharray:0;}#my-svg .edge-thickness-invisible{stroke-width:0;fill:none;}#my-svg .edge-pattern-dashed{stroke-dasharray:3;}#my-svg .edge-pattern-dotted{stroke-dasharray:2;}#my-svg .marker{fill:#333333;stroke:#333333;}#my-svg .marker.cross{stroke:#333333;}#my-svg svg{font-family:"trebuchet ms",verdana,arial,sans-serif;font-size:16px;}#my-svg p{margin:0;}#my-svg g.classGroup text{fill:#9370DB;stroke:none;font-family:"trebuchet ms",verdana,arial,sans-serif;font-size:10px;}#my-svg g.classGroup text .title{font-weight:bolder;}#my-svg .cluster-label text{fill:#333;}#my-svg .cluster-label span{color:#333;}#my-svg .cluster-label span p{background-color:transparent;}#my-svg .cluster rect{fill:#ffffde;stroke:#aaaa33;stroke-width:1px;}#my-svg .cluster text{fill:#333;}#my-svg .cluster span{color:#333;}#my-svg .nodeLabel,#my-svg .edgeLabel{color:#131300;}#my-svg .noteLabel .nodeLabel,#my-svg .noteLabel .edgeLabel{color:black;}#my-svg .edgeLabel .label rect{fill:#ECECFF;}#my-svg .label text{fill:#131300;}#my-svg .labelBkg{background:#ECECFF;}#my-svg .edgeLabel .label span{background:#ECECFF;}#my-svg .classTitle{font-weight:bolder;}#my-svg .node rect,#my-svg .node circle,#my-svg .node ellipse,#my-svg .node polygon,#my-svg .node path{fill:#ECECFF;stroke:#9370DB;stroke-width:1;}#my-svg .divider{stroke:#9370DB;stroke-width:1;}#my-svg g.clickable{cursor:pointer;}#my-svg g.classGroup rect{fill:#ECECFF;stroke:#9370DB;}#my-svg g.classGroup line{stroke:#9370DB;stroke-width:1;}#my-svg .classLabel .box{stroke:none;stroke-width:0;fill:#ECECFF;opacity:0.5;}#my-svg .classLabel .label{fill:#9370DB;font-size:10px;}#my-svg .relation{stroke:#333333;stroke-width:1;fill:none;}#my-svg .dashed-line{stroke-dasharray:3;}#my-svg .dotted-line{stroke-dasharray:1 2;}#my-svg [id$="-compositionStart"],#my-svg .composition{fill:#333333!important;stroke:#333333!important;stroke-width:1;}#my-svg [id$="-compositionEnd"],#my-svg .composition{fill:#333333!important;stroke:#333333!important;stroke-width:1;}#my-svg [id$="-dependencyStart"],#my-svg .dependency{fill:#333333!important;stroke:#333333!important;stroke-width:1;}#my-svg [id$="-dependencyEnd"],#my-svg .dependency{fill:#333333!important;stroke:#333333!important;stroke-width:1;}#my-svg [id$="-extensionStart"],#my-svg .extension{fill:transparent!important;stroke:#333333!important;stroke-width:1;}#my-svg [id$="-extensionEnd"],#my-svg .extension{fill:transparent!important;stroke:#333333!important;stroke-width:1;}#my-svg [id$="-aggregationStart"],#my-svg .aggregation{fill:transparent!important;stroke:#333333!important;stroke-width:1;}#my-svg [id$="-aggregationEnd"],#my-svg .aggregation{fill:transparent!important;stroke:#333333!important;stroke-width:1;}#my-svg [id$="-lollipopStart"],#my-svg .lollipop{fill:#ECECFF!important;stroke:#333333!important;stroke-width:1;}#my-svg [id$="-lollipopEnd"],#my-svg .lollipop{fill:#ECECFF!important;stroke:#333333!important;stroke-width:1;}#my-svg .edgeTerminals{font-size:11px;line-height:initial;}#my-svg .classTitleText{text-anchor:middle;font-size:18px;fill:#333;}#my-svg .edgeLabel[data-look="neo"]{background-color:rgba(232,232,232, 0.8);text-align:center;}#my-svg .edgeLabel[data-look="neo"] p{background-color:rgba(232,232,232, 0.8);}#my-svg .edgeLabel[data-look="neo"] rect{opacity:0.5;background-color:rgba(232,232,232, 0.8);fill:rgba(232,232,232, 0.8);}#my-svg .label-icon{display:inline-block;height:1em;overflow:visible;vertical-align:-0.125em;}#my-svg .node .label-icon path{fill:currentColor;stroke:revert;stroke-width:revert;}#my-svg .node .neo-node{stroke:#9370DB;}#my-svg [data-look="neo"].node rect,#my-svg [data-look="neo"].cluster rect,#my-svg [data-look="neo"].node polygon{stroke:#9370DB;filter:drop-shadow(1px 2px 2px rgba(185, 185, 185, 1));}#my-svg [data-look="neo"].node path{stroke:#9370DB;stroke-width:1px;}#my-svg [data-look="neo"].node .outer-path{filter:drop-shadow(1px 2px 2px rgba(185, 185, 185, 1));}#my-svg [data-look="neo"].node .neo-line path{stroke:#9370DB;filter:none;}#my-svg [data-look="neo"].node circle{stroke:#9370DB;filter:drop-shadow(1px 2px 2px rgba(185, 185, 185, 1));}#my-svg [data-look="neo"].node circle .state-start{fill:#000000;}#my-svg [data-look="neo"].icon-shape .icon{fill:#9370DB;filter:drop-shadow(1px 2px 2px rgba(185, 185, 185, 1));}#my-svg [data-look="neo"].icon-shape .icon-neo path{stroke:#9370DB;filter:drop-shadow(1px 2px 2px rgba(185, 185, 185, 1));}#my-svg :root{--mermaid-font-family:"trebuchet ms",verdana,arial,sans-serif;}</style><g><defs><marker id="my-svg_class-aggregationStart" class="marker aggregation class" refX="18" refY="7" markerWidth="190" markerHeight="240" orient="auto"><path d="M 18,7 L9,13 L1,7 L9,1 Z"/></marker></defs><defs><marker id="my-svg_class-aggregationEnd" class="marker aggregation class" refX="1" refY="7" markerWidth="20" markerHeight="28" orient="auto"><path d="M 18,7 L9,13 L1,7 L9,1 Z"/></marker></defs><defs><marker id="my-svg_class-aggregationStart-margin" class="marker aggregation class" refX="15" refY="7" markerWidth="190" markerHeight="240" orient="auto" markerUnits="userSpaceOnUse"><path d="M 18,7 L9,13 L1,7 L9,1 Z" style="stroke-width: 2;"/></marker></defs><defs><marker id="my-svg_class-aggregationEnd-margin" class="marker aggregation class" refX="1" refY="7" markerWidth="20" markerHeight="28" orient="auto" markerUnits="userSpaceOnUse"><path d="M 18,7 L9,13 L1,7 L9,1 Z" style="stroke-width: 2;"/></marker></defs><defs><marker id="my-svg_class-extensionStart" class="marker extension class" refX="18" refY="7" markerWidth="20" markerHeight="28" orient="auto" markerUnits="userSpaceOnUse"><path d="M 1,7 L18,13 V 1 Z"/></marker></defs><defs><marker id="my-svg_class-extensionEnd" class="marker extension class" refX="1" refY="7" markerWidth="20" markerHeight="28" orient="auto"><path d="M 1,1 V 13 L18,7 Z"/></marker></defs><marker id="my-svg_class-extensionStart-margin" class="marker extension class" refX="18" refY="7" markerWidth="20" markerHeight="28" orient="auto" markerUnits="userSpaceOnUse" viewBox="0 0 20 14"><polygon points="10,7 18,13 18,1" style="stroke-width: 2; stroke-dasharray: 0;"/></marker><defs><marker id="my-svg_class-extensionEnd-margin" class="marker extension class" refX="9" refY="7" markerWidth="20" markerHeight="28" orient="auto" markerUnits="userSpaceOnUse" viewBox="0 0 20 14"><polygon points="10,1 10,13 18,7" style="stroke-width: 2; stroke-dasharray: 0;"/></marker></defs><defs><marker id="my-svg_class-compositionStart" class="marker composition class" refX="18" refY="7" markerWidth="190" markerHeight="240" orient="auto"><path d="M 18,7 L9,13 L1,7 L9,1 Z"/></marker></defs><defs><marker id="my-svg_class-compositionEnd" class="marker composition class" refX="1" refY="7" markerWidth="20" markerHeight="28" orient="auto"><path d="M 18,7 L9,13 L1,7 L9,1 Z"/></marker></defs><defs><marker id="my-svg_class-compositionStart-margin" class="marker composition class" refX="15" refY="7" markerWidth="190" markerHeight="240" orient="auto" markerUnits="userSpaceOnUse"><path viewBox="0 0 15 15" d="M 18,7 L9,13 L1,7 L9,1 Z" style="stroke-width: 0;"/></marker></defs><defs><marker id="my-svg_class-compositionEnd-margin" class="marker composition class" refX="3.5" refY="7" markerWidth="20" markerHeight="28" orient="auto" markerUnits="userSpaceOnUse"><path d="M 18,7 L9,13 L1,7 L9,1 Z" style="stroke-width: 0;"/></marker></defs><defs><marker id="my-svg_class-dependencyStart" class="marker dependency class" refX="6" refY="7" markerWidth="190" markerHeight="240" orient="auto"><path d="M 5,7 L9,13 L1,7 L9,1 Z"/></marker></defs><defs><marker id="my-svg_class-dependencyEnd" class="marker dependency class" refX="13" refY="7" markerWidth="20" markerHeight="28" orient="auto"><path d="M 18,7 L9,13 L14,7 L9,1 Z"/></marker></defs><defs><marker id="my-svg_class-dependencyStart-margin" class="marker dependency class" refX="4" refY="7" markerWidth="190" markerHeight="240" orient="auto" markerUnits="userSpaceOnUse"><path d="M 5,7 L9,13 L1,7 L9,1 Z" style="stroke-width: 0;"/></marker></defs><defs><marker id="my-svg_class-dependencyEnd-margin" class="marker dependency class" refX="16" refY="7" markerWidth="20" markerHeight="28" orient="auto" markerUnits="userSpaceOnUse"><path d="M 18,7 L9,13 L14,7 L9,1 Z" style="stroke-width: 0;"/></marker></defs><defs><marker id="my-svg_class-lollipopStart" class="marker lollipop class" refX="13" refY="7" markerWidth="190" markerHeight="240" orient="auto"><circle fill="transparent" cx="7" cy="7" r="6"/></marker></defs><defs><marker id="my-svg_class-lollipopEnd" class="marker lollipop class" refX="1" refY="7" markerWidth="190" markerHeight="240" orient="auto"><circle fill="transparent" cx="7" cy="7" r="6"/></marker></defs><defs><marker id="my-svg_class-lollipopStart-margin" class="marker lollipop class" refX="13" refY="7" markerWidth="190" markerHeight="240" orient="auto" markerUnits="userSpaceOnUse"><circle fill="transparent" cx="7" cy="7" r="6" stroke-width="2"/></marker></defs><defs><marker id="my-svg_class-lollipopEnd-margin" class="marker lollipop class" refX="1" refY="7" markerWidth="190" markerHeight="240" orient="auto" markerUnits="userSpaceOnUse"><circle fill="transparent" cx="7" cy="7" r="6" stroke-width="2"/></marker></defs><g class="root"><g class="clusters"/><g class="edgePaths"><path d="M151.357,238.916L150.381,240.597C149.405,242.278,147.452,245.639,146.476,251.486C145.5,257.333,145.5,265.667,145.5,269.833L145.5,274" id="my-svg-id_BaseModel_User_1" class="edge-thickness-normal edge-pattern-solid relation" style=";;;" data-edge="true" data-et="edge" data-id="id_BaseModel_User_1" data-points="W3sieCI6MTYwLjAyMDY3NjY5MTcyOTMsInkiOjIyNH0seyJ4IjoxNDUuNSwieSI6MjQ5fSx7IngiOjE0NS41LCJ5IjoyNzR9XQ==" data-look="classic" marker-start="url(#my-svg_class-extensionStart)"/><path d="M313.221,237.85L314.601,239.708C315.981,241.567,318.74,245.283,320.12,275.308C321.5,305.333,321.5,361.667,321.5,420C321.5,478.333,321.5,538.667,321.883,575C322.267,611.333,323.033,623.667,323.416,629.833L323.8,636" id="my-svg-id_BaseModel_Place_2" class="edge-thickness-normal edge-pattern-solid relation" style=";;;" data-edge="true" data-et="edge" data-id="id_BaseModel_Place_2" data-points="W3sieCI6MzAyLjkzNzk2OTkyNDgxMiwieSI6MjI0fSx7IngiOjMyMS41LCJ5IjoyNDl9LHsieCI6MzIxLjUsInkiOjQxOH0seyJ4IjozMjEuNSwieSI6NTk5fSx7IngiOjMyMy43OTk3MjM3NTY5MDYxLCJ5Ijo2MzZ9XQ==" data-look="classic" marker-start="url(#my-svg_class-extensionStart)"/><path d="M81.024,191.474L63.02,201.061C45.016,210.649,9.008,229.825,-8.996,267.579C-27,305.333,-27,361.667,-27,420C-27,478.333,-27,538.667,-27,599C-27,659.333,-27,719.667,-27,780C-27,840.333,-27,900.667,-13.25,941.435C0.5,982.203,28,1003.406,41.75,1014.007L55.5,1024.609" id="my-svg-id_BaseModel_Review_3" class="edge-thickness-normal edge-pattern-solid relation" style=";;;" data-edge="true" data-et="edge" data-id="id_BaseModel_Review_3" data-points="W3sieCI6OTYuMjUsInkiOjE4My4zNjUzNjUzNjUzNjUzNn0seyJ4IjotMjcsInkiOjI0OX0seyJ4IjotMjcsInkiOjQxOH0seyJ4IjotMjcsInkiOjU5OX0seyJ4IjotMjcsInkiOjc4MH0seyJ4IjotMjcsInkiOjk2MX0seyJ4Ijo1NS41LCJ5IjoxMDI0LjYwODY5NTY1MjE3NH1d" data-look="classic" marker-start="url(#my-svg_class-extensionStart)"/><path d="M364.673,187.095L385.269,197.413C405.865,207.73,447.058,228.365,467.654,266.849C488.25,305.333,488.25,361.667,488.25,420C488.25,478.333,488.25,538.667,488.25,599C488.25,659.333,488.25,719.667,488.25,780C488.25,840.333,488.25,900.667,490.945,941C493.639,981.333,499.028,1001.667,501.723,1011.833L504.417,1022" id="my-svg-id_BaseModel_Amenity_4" class="edge-thickness-normal edge-pattern-solid relation" style=";;;" data-edge="true" data-et="edge" data-id="id_BaseModel_Amenity_4" data-points="W3sieCI6MzQ5LjI1LCJ5IjoxNzkuMzY5MTE0ODc3NTg5NDV9LHsieCI6NDg4LjI1LCJ5IjoyNDl9LHsieCI6NDg4LjI1LCJ5Ijo0MTh9LHsieCI6NDg4LjI1LCJ5Ijo1OTl9LHsieCI6NDg4LjI1LCJ5Ijo3ODB9LHsieCI6NDg4LjI1LCJ5Ijo5NjF9LHsieCI6NTA0LjQxNzI5MzIzMzA4MjcsInkiOjEwMjJ9XQ==" data-look="classic" marker-start="url(#my-svg_class-extensionStart)"/><path d="M283,516.079L302.375,529.899C321.75,543.719,360.5,571.36,377.954,590.408C395.408,609.456,391.567,619.912,389.646,625.14L387.725,630.368" id="my-svg-id_User_Place_5" class="edge-thickness-normal edge-pattern-solid relation" style=";;;" data-edge="true" data-et="edge" data-id="id_User_Place_5" data-points="W3sieCI6MjgzLCJ5Ijo1MTYuMDc4ODE3NzMzOTkwMX0seyJ4IjozOTkuMjUsInkiOjU5OX0seyJ4IjozODUuNjU2MDc3MzQ4MDY2MywieSI6NjM2fV0=" data-look="classic" marker-end="url(#my-svg_class-dependencyEnd)"/><path d="M145.5,562L145.5,568.167C145.5,574.333,145.5,586.667,145.5,623C145.5,659.333,145.5,719.667,145.5,780C145.5,840.333,145.5,900.667,145.5,936C145.5,971.333,145.5,981.667,145.5,986.833L145.5,992" id="my-svg-id_User_Review_6" class="edge-thickness-normal edge-pattern-solid relation" style=";;;" data-edge="true" data-et="edge" data-id="id_User_Review_6" data-points="W3sieCI6MTQ1LjUsInkiOjU2Mn0seyJ4IjoxNDUuNSwieSI6NTk5fSx7IngiOjE0NS41LCJ5Ijo3ODB9LHsieCI6MTQ1LjUsInkiOjk2MX0seyJ4IjoxNDUuNSwieSI6OTk4fV0=" data-look="classic" marker-end="url(#my-svg_class-dependencyEnd)"/><path d="M332.75,924L332.75,930.167C332.75,936.333,332.75,948.667,317.357,965.767C301.964,982.867,271.178,1004.734,255.785,1015.667L240.392,1026.6" id="my-svg-id_Place_Review_7" class="edge-thickness-normal edge-pattern-solid relation" style=";;;" data-edge="true" data-et="edge" data-id="id_Place_Review_7" data-points="W3sieCI6MzMyLjc1LCJ5Ijo5MjR9LHsieCI6MzMyLjc1LCJ5Ijo5NjF9LHsieCI6MjM1LjUsInkiOjEwMzAuMDc0NzY2MzU1MTQwMX1d" data-look="classic" marker-end="url(#my-svg_class-dependencyEnd)"/><path d="M453.25,880.509L469.333,893.924C485.417,907.339,517.583,934.17,531.854,956.77C546.124,979.371,542.498,997.742,540.685,1006.928L538.872,1016.114" id="my-svg-id_Place_Amenity_8" class="edge-thickness-normal edge-pattern-solid relation" style=";;;" data-edge="true" data-et="edge" data-id="id_Place_Amenity_8" data-points="W3sieCI6NDUzLjI1LCJ5Ijo4ODAuNTA5MjE2NTg5ODYxOH0seyJ4Ijo1NDkuNzUsInkiOjk2MX0seyJ4Ijo1MzcuNzEwNTI2MzE1Nzg5NSwieSI6MTAyMn1d" data-look="classic" marker-end="url(#my-svg_class-dependencyEnd)"/></g><g class="edgeLabels"><g class="edgeLabel"><g class="label" data-id="id_BaseModel_User_1" transform="translate(0, 0)"><foreignObject width="0" height="0"><div xmlns="http://www.w3.org/1999/xhtml" class="labelBkg" style="display: table-cell; white-space: nowrap; line-height: 1.5; max-width: 200px; text-align: center;"><span class="edgeLabel"></span></div></foreignObject></g></g><g class="edgeLabel"><g class="label" data-id="id_BaseModel_Place_2" transform="translate(0, 0)"><foreignObject width="0" height="0"><div xmlns="http://www.w3.org/1999/xhtml" class="labelBkg" style="display: table-cell; white-space: nowrap; line-height: 1.5; max-width: 200px; text-align: center;"><span class="edgeLabel"></span></div></foreignObject></g></g><g class="edgeLabel"><g class="label" data-id="id_BaseModel_Review_3" transform="translate(0, 0)"><foreignObject width="0" height="0"><div xmlns="http://www.w3.org/1999/xhtml" class="labelBkg" style="display: table-cell; white-space: nowrap; line-height: 1.5; max-width: 200px; text-align: center;"><span class="edgeLabel"></span></div></foreignObject></g></g><g class="edgeLabel"><g class="label" data-id="id_BaseModel_Amenity_4" transform="translate(0, 0)"><foreignObject width="0" height="0"><div xmlns="http://www.w3.org/1999/xhtml" class="labelBkg" style="display: table-cell; white-space: nowrap; line-height: 1.5; max-width: 200px; text-align: center;"><span class="edgeLabel"></span></div></foreignObject></g></g><g class="edgeLabel" transform="translate(357.17043, 568.98462)"><g class="label" data-id="id_User_Place_5" transform="translate(-20.5, -12)"><foreignObject width="41" height="24"><div xmlns="http://www.w3.org/1999/xhtml" class="labelBkg" style="display: table-cell; white-space: nowrap; line-height: 1.5; max-width: 200px; text-align: center;"><span class="edgeLabel"><p>owns</p></span></div></foreignObject></g></g><g class="edgeLabel" transform="translate(145.5, 780)"><g class="label" data-id="id_User_Review_6" transform="translate(-24, -12)"><foreignObject width="48" height="24"><div xmlns="http://www.w3.org/1999/xhtml" class="labelBkg" style="display: table-cell; white-space: nowrap; line-height: 1.5; max-width: 200px; text-align: center;"><span class="edgeLabel"><p>writes</p></span></div></foreignObject></g></g><g class="edgeLabel" transform="translate(332.75, 961)"><g class="label" data-id="id_Place_Review_7" transform="translate(-33.5, -12)"><foreignObject width="67" height="24"><div xmlns="http://www.w3.org/1999/xhtml" class="labelBkg" style="display: table-cell; white-space: nowrap; line-height: 1.5; max-width: 200px; text-align: center;"><span class="edgeLabel"><p>receives</p></span></div></foreignObject></g></g><g class="edgeLabel" transform="translate(525.37373, 940.66772)"><g class="label" data-id="id_Place_Amenity_8" transform="translate(-32.5, -12)"><foreignObject width="65" height="24"><div xmlns="http://www.w3.org/1999/xhtml" class="labelBkg" style="display: table-cell; white-space: nowrap; line-height: 1.5; max-width: 200px; text-align: center;"><span class="edgeLabel"><p>includes</p></span></div></foreignObject></g></g><g class="edgeTerminals" transform="translate(288.5363653358594, 538.452878610231)"><g class="inner" transform="translate(-3.5, -8.25)"><foreignObject width="7" height="16.5" style="width: 9px; height: 12px;"><div xmlns="http://www.w3.org/1999/xhtml" style="display: table-cell; white-space: nowrap; line-height: 1.5;"><span class="edgeLabel"><p>1</p></span></div></foreignObject></g></g><g class="edgeTerminals" transform="translate(130.5, 579.5)"><g class="inner" transform="translate(-3.5, -8.25)"><foreignObject width="7" height="16.5" style="width: 9px; height: 12px;"><div xmlns="http://www.w3.org/1999/xhtml" style="display: table-cell; white-space: nowrap; line-height: 1.5;"><span class="edgeLabel"><p>1</p></span></div></foreignObject></g></g><g class="edgeTerminals" transform="translate(317.75, 941.5)"><g class="inner" transform="translate(-3.5, -8.25)"><foreignObject width="7" height="16.5" style="width: 9px; height: 12px;"><div xmlns="http://www.w3.org/1999/xhtml" style="display: table-cell; white-space: nowrap; line-height: 1.5;"><span class="edgeLabel"><p>1</p></span></div></foreignObject></g></g><g class="edgeTerminals" transform="translate(457.0808091280363, 903.2375005873641)"><g class="inner" transform="translate(-10.5, -8.25)"><foreignObject width="21" height="16.5" style="width: 36px; height: 12px;"><div xmlns="http://www.w3.org/1999/xhtml" style="display: table-cell; white-space: nowrap; line-height: 1.5;"><span class="edgeLabel"><p>0..*</p></span></div></foreignObject></g></g><g class="edgeTerminals" transform="translate(400.77098808598396, 619.7465414453537)"><g class="inner" transform="translate(-10.5, -8.25)"/><foreignObject width="21" height="16.5" style="width: 36px; height: 12px;"><div xmlns="http://www.w3.org/1999/xhtml" style="display: table-cell; white-space: nowrap; line-height: 1.5;"><span class="edgeLabel"><p>0..*</p></span></div></foreignObject></g><g class="edgeTerminals" transform="translate(155.5, 975.5)"><g class="inner" transform="translate(-10.5, -8.25)"/><foreignObject width="21" height="16.5" style="width: 36px; height: 12px;"><div xmlns="http://www.w3.org/1999/xhtml" style="display: table-cell; white-space: nowrap; line-height: 1.5;"><span class="edgeLabel"><p>0..*</p></span></div></foreignObject></g><g class="edgeTerminals" transform="translate(253.45342284974373, 1027.1700994923408)"><g class="inner" transform="translate(-10.5, -8.25)"/><foreignObject width="21" height="16.5" style="width: 36px; height: 12px;"><div xmlns="http://www.w3.org/1999/xhtml" style="display: table-cell; white-space: nowrap; line-height: 1.5;"><span class="edgeLabel"><p>0..*</p></span></div></foreignObject></g><g class="edgeTerminals" transform="translate(550.8152137641533, 1002.7356995557465)"><g class="inner" transform="translate(-10.5, -8.25)"/><foreignObject width="21" height="16.5" style="width: 36px; height: 12px;"><div xmlns="http://www.w3.org/1999/xhtml" style="display: table-cell; white-space: nowrap; line-height: 1.5;"><span class="edgeLabel"><p>0..*</p></span></div></foreignObject></g></g><g class="nodes"><g class="node default" id="my-svg-classId-BaseModel-0" data-look="classic" transform="translate(222.75, 116)"><g class="basic label-container outer-path"><path d="M-126.5 -108 L126.5 -108 L126.5 108 L-126.5 108" stroke="none" stroke-width="0" fill="#ECECFF" style=""/><path d="M-126.5 -108 C-64.43364340888186 -108, -2.367286817763741 -108, 126.5 -108 M-126.5 -108 C-57.86799330990222 -108, 10.764013380195564 -108, 126.5 -108 M126.5 -108 C126.5 -44.541477731167106, 126.5 18.917044537665788, 126.5 108 M126.5 -108 C126.5 -34.117288498099484, 126.5 39.76542300380103, 126.5 108 M126.5 108 C47.40456143097167 108, -31.690877138056663 108, -126.5 108 M126.5 108 C50.41991034861307 108, -25.660179302773855 108, -126.5 108 M-126.5 108 C-126.5 49.05621854493628, -126.5 -9.887562910127443, -126.5 -108 M-126.5 108 C-126.5 52.260682422574426, -126.5 -3.4786351548511476, -126.5 -108" stroke="#9370DB" stroke-width="1.3" fill="none" stroke-dasharray="0 0" style=""/></g><g class="annotation-group text" transform="translate(0, -84)"/><g class="label-group text" transform="translate(-49, -84)"><g class="label" style="font-weight: bolder" transform="translate(0,-12)"><foreignObject width="98" height="24"><div xmlns="http://www.w3.org/1999/xhtml" style="display: table-cell; white-space: nowrap; line-height: 1.5; max-width: 137px; text-align: center;"><span class="nodeLabel markdown-node-label" style=""><p>BaseModel</p></span></div></foreignObject></g></g><g class="members-group text" transform="translate(-114.5, -36)"><g class="label" style="" transform="translate(0,-12)"><foreignObject width="73" height="24"><div xmlns="http://www.w3.org/1999/xhtml" style="display: table-cell; white-space: nowrap; line-height: 1.5; max-width: 128px; text-align: center;"><span class="nodeLabel markdown-node-label" style=""><p>+UUID id</p></span></div></foreignObject></g><g class="label" style="" transform="translate(0,12)"><foreignObject width="176" height="24"><div xmlns="http://www.w3.org/1999/xhtml" style="display: table-cell; white-space: nowrap; line-height: 1.5; max-width: 231px; text-align: center;"><span class="nodeLabel markdown-node-label" style=""><p>+datetime created_at</p></span></div></foreignObject></g><g class="label" style="" transform="translate(0,36)"><foreignObject width="180" height="24"><div xmlns="http://www.w3.org/1999/xhtml" style="display: table-cell; white-space: nowrap; line-height: 1.5; max-width: 235px; text-align: center;"><span class="nodeLabel markdown-node-label" style=""><p>+datetime updated_at</p></span></div></foreignObject></g></g><g class="methods-group text" transform="translate(-114.5, 60)"><g class="label" style="" transform="translate(0,-12)"><foreignObject width="117" height="24"><div xmlns="http://www.w3.org/1999/xhtml" style="display: table-cell; white-space: nowrap; line-height: 1.5; max-width: 172px; text-align: center;"><span class="nodeLabel markdown-node-label" style=""><p>+update(data)</p></span></div></foreignObject></g><g class="label" style="" transform="translate(0,12)"><foreignObject width="78" height="24"><div xmlns="http://www.w3.org/1999/xhtml" style="display: table-cell; white-space: nowrap; line-height: 1.5; max-width: 133px; text-align: center;"><span class="nodeLabel markdown-node-label" style=""><p>+to_dict()</p></span></div></foreignObject></g></g><g class="divider" style=""><path d="M-126.5 -60 C-26.162549271368036 -59.99960340928566, 74.17490145726393 -59.99920681857132, 126.5 -59.999 M-126.5 -60 C-54.5400457343968 -59.9997155733033, 17.419908531206403 -59.9994311466066, 126.5 -59.999" stroke="#9370DB" stroke-width="1.3" fill="none" stroke-dasharray="0 0" style=""/></g><g class="divider" style=""><path d="M-126.5 36 C-35.95785727827398 36.00035787408191, 54.584285443452046 36.000715748163806, 126.5 36.001 M-126.5 36 C-75.39806808430902 36.00020198392062, -24.296136168618034 36.00040396784123, 126.5 36.001" stroke="#9370DB" stroke-width="1.3" fill="none" stroke-dasharray="0 0" style=""/></g></g><g class="node default" id="my-svg-classId-User-1" data-look="classic" transform="translate(145.5, 418)"><g class="basic label-container outer-path"><path d="M-137.5 -144 L137.5 -144 L137.5 144 L-137.5 144" stroke="none" stroke-width="0" fill="#ECECFF" style=""/><path d="M-137.5 -144 C-32.448781135641866 -144, 72.60243772871627 -144, 137.5 -144 M-137.5 -144 C-79.98461019387372 -144, -22.46922038774744 -144, 137.5 -144 M137.5 -144 C137.5 -69.30581315365141, 137.5 5.388373692697172, 137.5 144 M137.5 -144 C137.5 -56.75927081238696, 137.5 30.481458375226083, 137.5 144 M137.5 144 C51.18421665342824 144, -35.131566693143526 144, -137.5 144 M137.5 144 C68.27559298524393 144, -0.9488140295121354 144, -137.5 144 M-137.5 144 C-137.5 53.534165956155505, -137.5 -36.93166808768899, -137.5 -144 M-137.5 144 C-137.5 70.55742608299153, -137.5 -2.885147834016948, -137.5 -144" stroke="#9370DB" stroke-width="1.3" fill="none" stroke-dasharray="0 0" style=""/></g><g class="annotation-group text" transform="translate(0, -120)"/><g class="label-group text" transform="translate(-21, -120)"><g class="label" style="font-weight: bolder" transform="translate(0,-12)"><foreignObject width="42" height="24"><div xmlns="http://www.w3.org/1999/xhtml" style="display: table-cell; white-space: nowrap; line-height: 1.5; max-width: 87px; text-align: center;"><span class="nodeLabel markdown-node-label" style=""><p>User</p></span></div></foreignObject></g></g><g class="members-group text" transform="translate(-125.5, -72)"><g class="label" style="" transform="translate(0,-12)"><foreignObject width="150" height="24"><div xmlns="http://www.w3.org/1999/xhtml" style="display: table-cell; white-space: nowrap; line-height: 1.5; max-width: 205px; text-align: center;"><span class="nodeLabel markdown-node-label" style=""><p>+String first_name</p></span></div></foreignObject></g><g class="label" style="" transform="translate(0,12)"><foreignObject width="147" height="24"><div xmlns="http://www.w3.org/1999/xhtml" style="display: table-cell; white-space: nowrap; line-height: 1.5; max-width: 202px; text-align: center;"><span class="nodeLabel markdown-node-label" style=""><p>+String last_name</p></span></div></foreignObject></g><g class="label" style="" transform="translate(0,36)"><foreignObject width="109" height="24"><div xmlns="http://www.w3.org/1999/xhtml" style="display: table-cell; white-space: nowrap; line-height: 1.5; max-width: 164px; text-align: center;"><span class="nodeLabel markdown-node-label" style=""><p>+String email</p></span></div></foreignObject></g><g class="label" style="" transform="translate(0,60)"><foreignObject width="141" height="24"><div xmlns="http://www.w3.org/1999/xhtml" style="display: table-cell; white-space: nowrap; line-height: 1.5; max-width: 196px; text-align: center;"><span class="nodeLabel markdown-node-label" style=""><p>+String password</p></span></div></foreignObject></g><g class="label" style="" transform="translate(0,84)"><foreignObject width="153" height="24"><div xmlns="http://www.w3.org/1999/xhtml" style="display: table-cell; white-space: nowrap; line-height: 1.5; max-width: 208px; text-align: center;"><span class="nodeLabel markdown-node-label" style=""><p>+Boolean is_admin</p></span></div></foreignObject></g></g><g class="methods-group text" transform="translate(-125.5, 72)"><g class="label" style="" transform="translate(0,-12)"><foreignObject width="223" height="24"><div xmlns="http://www.w3.org/1999/xhtml" style="display: table-cell; white-space: nowrap; line-height: 1.5; max-width: 278px; text-align: center;"><span class="nodeLabel markdown-node-label" style=""><p>+hash_password(password)</p></span></div></foreignObject></g><g class="label" style="" transform="translate(0,12)"><foreignObject width="230" height="24"><div xmlns="http://www.w3.org/1999/xhtml" style="display: table-cell; white-space: nowrap; line-height: 1.5; max-width: 285px; text-align: center;"><span class="nodeLabel markdown-node-label" style=""><p>+verify_password(password)</p></span></div></foreignObject></g><g class="label" style="" transform="translate(0,36)"><foreignObject width="78" height="24"><div xmlns="http://www.w3.org/1999/xhtml" style="display: table-cell; white-space: nowrap; line-height: 1.5; max-width: 133px; text-align: center;"><span class="nodeLabel markdown-node-label" style=""><p>+to_dict()</p></span></div></foreignObject></g></g><g class="divider" style=""><path d="M-137.5 -96 C-79.77149016910182 -95.99979007814606, -22.042980338203648 -95.99958015629214, 137.5 -95.999 M-137.5 -96 C-61.80086739153968 -95.99972473042688, 13.898265216920635 -95.99944946085375, 137.5 -95.999" stroke="#9370DB" stroke-width="1.3" fill="none" stroke-dasharray="0 0" style=""/></g><g class="divider" style=""><path d="M-137.5 48 C-28.443623658422013 48.00039656864124, 80.61275268315597 48.000793137282486, 137.5 48.001 M-137.5 48 C-50.12883940600119 48.00031771331125, 37.24232118799762 48.0006354266225, 137.5 48.001" stroke="#9370DB" stroke-width="1.3" fill="none" stroke-dasharray="0 0" style=""/></g></g><g class="node default" id="my-svg-classId-Place-2" data-look="classic" transform="translate(332.75, 780)"><g class="basic label-container outer-path"><path d="M-120.5 -144 L120.5 -144 L120.5 144 L-120.5 144" stroke="none" stroke-width="0" fill="#ECECFF" style=""/><path d="M-120.5 -144 C-57.9164547854626 -144, 4.667090429074804 -144, 120.5 -144 M-120.5 -144 C-51.67542899151913 -144, 17.149142016961747 -144, 120.5 -144 M120.5 -144 C120.5 -42.307519191750316, 120.5 59.38496161649937, 120.5 144 M120.5 -144 C120.5 -79.92911154217211, 120.5 -15.858223084344218, 120.5 144 M120.5 144 C68.37672920936441 144, 16.25345841872884 144, -120.5 144 M120.5 144 C50.50620971728607 144, -19.487580565427862 144, -120.5 144 M-120.5 144 C-120.5 50.90092825237451, -120.5 -42.198143495250974, -120.5 -144 M-120.5 144 C-120.5 77.97291423171393, -120.5 11.945828463427858, -120.5 -144" stroke="#9370DB" stroke-width="1.3" fill="none" stroke-dasharray="0 0" style=""/></g><g class="annotation-group text" transform="translate(0, -120)"/><g class="label-group text" transform="translate(-24, -120)"><g class="label" style="font-weight: bolder" transform="translate(0,-12)"><foreignObject width="48" height="24"><div xmlns="http://www.w3.org/1999/xhtml" style="display: table-cell; white-space: nowrap; line-height: 1.5; max-width: 93px; text-align: center;"><span class="nodeLabel markdown-node-label" style=""><p>Place</p></span></div></foreignObject></g></g><g class="members-group text" transform="translate(-108.5, -72)"><g class="label" style="" transform="translate(0,-12)"><foreignObject width="95" height="24"><div xmlns="http://www.w3.org/1999/xhtml" style="display: table-cell; white-space: nowrap; line-height: 1.5; max-width: 150px; text-align: center;"><span class="nodeLabel markdown-node-label" style=""><p>+String title</p></span></div></foreignObject></g><g class="label" style="" transform="translate(0,12)"><foreignObject width="153" height="24"><div xmlns="http://www.w3.org/1999/xhtml" style="display: table-cell; white-space: nowrap; line-height: 1.5; max-width: 208px; text-align: center;"><span class="nodeLabel markdown-node-label" style=""><p>+String description</p></span></div></foreignObject></g><g class="label" style="" transform="translate(0,36)"><foreignObject width="97" height="24"><div xmlns="http://www.w3.org/1999/xhtml" style="display: table-cell; white-space: nowrap; line-height: 1.5; max-width: 152px; text-align: center;"><span class="nodeLabel markdown-node-label" style=""><p>+Float price</p></span></div></foreignObject></g><g class="label" style="" transform="translate(0,60)"><foreignObject width="117" height="24"><div xmlns="http://www.w3.org/1999/xhtml" style="display: table-cell; white-space: nowrap; line-height: 1.5; max-width: 172px; text-align: center;"><span class="nodeLabel markdown-node-label" style=""><p>+Float latitude</p></span></div></foreignObject></g><g class="label" style="" transform="translate(0,84)"><foreignObject width="131" height="24"><div xmlns="http://www.w3.org/1999/xhtml" style="display: table-cell; white-space: nowrap; line-height: 1.5; max-width: 186px; text-align: center;"><span class="nodeLabel markdown-node-label" style=""><p>+Float longitude</p></span></div></foreignObject></g><g class="label" style="" transform="translate(0,108)"><foreignObject width="131" height="24"><div xmlns="http://www.w3.org/1999/xhtml" style="display: table-cell; white-space: nowrap; line-height: 1.5; max-width: 186px; text-align: center;"><span class="nodeLabel markdown-node-label" style=""><p>+UUID owner_id</p></span></div></foreignObject></g></g><g class="methods-group text" transform="translate(-108.5, 96)"><g class="label" style="" transform="translate(0,-12)"><foreignObject width="193" height="24"><div xmlns="http://www.w3.org/1999/xhtml" style="display: table-cell; white-space: nowrap; line-height: 1.5; max-width: 248px; text-align: center;"><span class="nodeLabel markdown-node-label" style=""><p>+add_amenity(amenity)</p></span></div></foreignObject></g><g class="label" style="" transform="translate(0,12)"><foreignObject width="78" height="24"><div xmlns="http://www.w3.org/1999/xhtml" style="display: table-cell; white-space: nowrap; line-height: 1.5; max-width: 133px; text-align: center;"><span class="nodeLabel markdown-node-label" style=""><p>+to_dict()</p></span></div></foreignObject></g></g><g class="divider" style=""><path d="M-120.5 -96 C-60.169781757902896 -95.99974966714423, 0.1604364841942072 -95.99949933428844, 120.5 -95.999 M-120.5 -96 C-53.8333259230582 -95.99972337479636, 12.833348153883605 -95.99944674959272, 120.5 -95.999" stroke="#9370DB" stroke-width="1.3" fill="none" stroke-dasharray="0 0" style=""/></g><g class="divider" style=""><path d="M-120.5 72 C-33.837596791131205 72.00035959503407, 52.82480641773759 72.00071919006812, 120.5 72.001 M-120.5 72 C-42.74488387911531 72.0003226353366, 35.01023224176939 72.0006452706732, 120.5 72.001" stroke="#9370DB" stroke-width="1.3" fill="none" stroke-dasharray="0 0" style=""/></g></g><g class="node default" id="my-svg-classId-Review-3" data-look="classic" transform="translate(145.5, 1094)"><g class="basic label-container outer-path"><path d="M-90 -96 L90 -96 L90 96 L-90 96" stroke="none" stroke-width="0" fill="#ECECFF" style=""/><path d="M-90 -96 C-33.85528596320757 -96, 22.28942807358486 -96, 90 -96 M-90 -96 C-34.258241825091105 -96, 21.48351634981779 -96, 90 -96 M90 -96 C90 -47.20014524111503, 90 1.5997095177699379, 90 96 M90 -96 C90 -22.532583223638255, 90 50.93483355272349, 90 96 M90 96 C23.26955378526081 96, -43.46089242947838 96, -90 96 M90 96 C34.449652001521336 96, -21.100695996957327 96, -90 96 M-90 96 C-90 56.698573421383145, -90 17.39714684276629, -90 -96 M-90 96 C-90 42.880340417012455, -90 -10.23931916597509, -90 -96" stroke="#9370DB" stroke-width="1.3" fill="none" stroke-dasharray="0 0" style=""/></g><g class="annotation-group text" transform="translate(0, -72)"/><g class="label-group text" transform="translate(-32, -72)"><g class="label" style="font-weight: bolder" transform="translate(0,-12)"><foreignObject width="64" height="24"><div xmlns="http://www.w3.org/1999/xhtml" style="display: table-cell; white-space: nowrap; line-height: 1.5; max-width: 106px; text-align: center;"><span class="nodeLabel markdown-node-label" style=""><p>Review</p></span></div></foreignObject></g></g><g class="members-group text" transform="translate(-78, -24)"><g class="label" style="" transform="translate(0,-12)"><foreignObject width="96" height="24"><div xmlns="http://www.w3.org/1999/xhtml" style="display: table-cell; white-space: nowrap; line-height: 1.5; max-width: 151px; text-align: center;"><span class="nodeLabel markdown-node-label" style=""><p>+String text</p></span></div></foreignObject></g><g class="label" style="" transform="translate(0,12)"><foreignObject width="116" height="24"><div xmlns="http://www.w3.org/1999/xhtml" style="display: table-cell; white-space: nowrap; line-height: 1.5; max-width: 171px; text-align: center;"><span class="nodeLabel markdown-node-label" style=""><p>+UUID user_id</p></span></div></foreignObject></g><g class="label" style="" transform="translate(0,36)"><foreignObject width="124" height="24"><div xmlns="http://www.w3.org/1999/xhtml" style="display: table-cell; white-space: nowrap; line-height: 1.5; max-width: 179px; text-align: center;"><span class="nodeLabel markdown-node-label" style=""><p>+UUID place_id</p></span></div></foreignObject></g></g><g class="methods-group text" transform="translate(-78, 72)"><g class="label" style="" transform="translate(0,-12)"><foreignObject width="78" height="24"><div xmlns="http://www.w3.org/1999/xhtml" style="display: table-cell; white-space: nowrap; line-height: 1.5; max-width: 133px; text-align: center;"><span class="nodeLabel markdown-node-label" style=""><p>+to_dict()</p></span></div></foreignObject></g></g><g class="divider" style=""><path d="M-90 -48 C-24.371234475518563 -47.999635395747084, 41.257531048962875 -47.999270791494176, 90 -47.999 M-90 -48 C-53.35597769094826 -47.999796422098285, -16.711955381896516 -47.99959284419657, 90 -47.999" stroke="#9370DB" stroke-width="1.3" fill="none" stroke-dasharray="0 0" style=""/></g><g class="divider" style=""><path d="M-90 48 C-40.55846493561985 48.0002746751948, 8.883070128760295 48.000549350389605, 90 48.001 M-90 48 C-40.37684561726728 48.00027568419102, 9.246308765465443 48.00055136838203, 90 48.001" stroke="#9370DB" stroke-width="1.3" fill="none" stroke-dasharray="0 0" style=""/></g></g><g class="node default" id="my-svg-classId-Amenity-4" data-look="classic" transform="translate(523.5, 1094)"><g class="basic label-container outer-path"><path d="M-86 -72 L86 -72 L86 72 L-86 72" stroke="none" stroke-width="0" fill="#ECECFF" style=""/><path d="M-86 -72 C-18.232296711843432 -72, 49.535406576313136 -72, 86 -72 M-86 -72 C-40.83298293931689 -72, 4.334034121366216 -72, 86 -72 M86 -72 C86 -34.87769409260648, 86 2.244611814787035, 86 72 M86 -72 C86 -25.76181281784526, 86 20.47637436430948, 86 72 M86 72 C19.39747295198613 72, -47.20505409602774 72, -86 72 M86 72 C49.35657884204554 72, 12.713157684091087 72, -86 72 M-86 72 C-86 23.297300595719705, -86 -25.40539880856059, -86 -72 M-86 72 C-86 28.198031894660545, -86 -15.60393621067891, -86 -72" stroke="#9370DB" stroke-width="1.3" fill="none" stroke-dasharray="0 0" style=""/></g><g class="annotation-group text" transform="translate(0, -48)"/><g class="label-group text" transform="translate(-37, -48)"><g class="label" style="font-weight: bolder" transform="translate(0,-12)"><foreignObject width="74" height="24"><div xmlns="http://www.w3.org/1999/xhtml" style="display: table-cell; white-space: nowrap; line-height: 1.5; max-width: 116px; text-align: center;"><span class="nodeLabel markdown-node-label" style=""><p>Amenity</p></span></div></foreignObject></g></g><g class="members-group text" transform="translate(-74, 0)"><g class="label" style="" transform="translate(0,-12)"><foreignObject width="111" height="24"><div xmlns="http://www.w3.org/1999/xhtml" style="display: table-cell; white-space: nowrap; line-height: 1.5; max-width: 166px; text-align: center;"><span class="nodeLabel markdown-node-label" style=""><p>+String name</p></span></div></foreignObject></g></g><g class="methods-group text" transform="translate(-74, 48)"><g class="label" style="" transform="translate(0,-12)"><foreignObject width="78" height="24"><div xmlns="http://www.w3.org/1999/xhtml" style="display: table-cell; white-space: nowrap; line-height: 1.5; max-width: 133px; text-align: center;"><span class="nodeLabel markdown-node-label" style=""><p>+to_dict()</p></span></div></foreignObject></g></g><g class="divider" style=""><path d="M-86 -24 C-22.507747719535466 -23.99963085899837, 40.98450456092907 -23.99926171799674, 86 -23.999 M-86 -24 C-29.678592977666227 -23.999672549959172, 26.642814044667546 -23.999345099918344, 86 -23.999" stroke="#9370DB" stroke-width="1.3" fill="none" stroke-dasharray="0 0" style=""/></g><g class="divider" style=""><path d="M-86 24 C-25.903755634823895 24.000349396769565, 34.19248873035221 24.00069879353913, 86 24.001 M-86 24 C-26.239260199740144 24.00034744616163, 33.52147960051971 24.00069489232326, 86 24.001" stroke="#9370DB" stroke-width="1.3" fill="none" stroke-dasharray="0 0" style=""/></g></g></g></g></g><defs><filter id="my-svg-drop-shadow" height="130%" width="130%"><feDropShadow dx="4" dy="4" stdDeviation="0" flood-opacity="0.06" flood-color="#000000"/></filter></defs><defs><filter id="my-svg-drop-shadow-small" height="150%" width="150%"><feDropShadow dx="2" dy="2" stdDeviation="0" flood-opacity="0.06" flood-color="#000000"/></filter></defs></svg>