<svg id="my-svg" width="100%" xmlns="http://www.w3.org/2000/svg" xmlns:xlink="http://www.w3.org/1999/xlink" class="classDiagram" style="max-width: 861.969px; background-color: white;" viewBox="0 0 861.96875 676" role="graphics-document document" aria-roledescription="class"><style>#my-svg{font-family:"trebuchet ms",verdana,arial,sans-serif;font-size:16px;fill:#333;}@keyframes edge-animation-frame{from{stroke-dashoffset:0;}}@keyframes dash{to{stroke-dashoffset:0;}}#my-svg .edge-animation-slow{stroke-dasharray:9,5!important;stroke-dashoffset:900;animation:dash 50s linear infinite;stroke-linecap:round;}#my-svg .edge-animation-fast{stroke-dasharray:9,5!important;stroke-dashoffset:900;animation:dash 20s linear infinite;stroke-linecap:round;}#my-svg .error-icon{fill:#552222;}#my-svg .error-text{fill:#552222;stroke:#552222;}#my-svg .edge-thickness-normal{stroke-width:1px;}#my-svg .edge-thickness-thick{stroke-width:3.5px;}#my-svg .edge-pattern-solid{stroke-dasharray:0;}#my-svg .edge-thickness-invisible{stroke-width:0;fill:none;}#my-svg .edge-pattern-dashed{stroke-dasharray:3;}#my-svg .edge-pattern-dotted{stroke-dasharray:2;}#my-svg .marker{fill:#333333;stroke:#333333;}#my-svg .marker.cross{stroke:#333333;}#my-svg svg{font-family:"trebuchet ms",verdana,arial,sans-serif;font-size:16px;}#my-svg p{margin:0;}#my-svg g.classGroup text{fill:#9370DB;stroke:none;font-family:"trebuchet ms",verdana,arial,sans-serif;font-size:10px;}#my-svg g.classGroup text .title{font-weight:bolder;}#my-svg .cluster-label text{fill:#333;}#my-svg .cluster-label span{color:#333;}#my-svg .cluster-label span p{background-color:transparent;}#my-svg .cluster rect{fill:#ffffde;stroke:#aaaa33;stroke-width:1px;}#my-svg .cluster text{fill:#333;}#my-svg .cluster span{color:#333;}#my-svg .nodeLabel,#my-svg .edgeLabel{color:#131300;}#my-svg .noteLabel .nodeLabel,#my-svg .noteLabel .edgeLabel{color:black;}#my-svg .edgeLabel .label rect{fill:#ECECFF;}#my-svg .label text{fill:#131300;}#my-svg .labelBkg{background:#ECECFF;}#my-svg .edgeLabel .label span{background:#ECECFF;}#my-svg .classTitle{font-weight:bolder;}#my-svg .node rect,#my-svg .node circle,#my-svg .node ellipse,#my-svg .node polygon,#my-svg .node path{fill:#ECECFF;stroke:#9370DB;stroke-width:1;}#my-svg .divider{stroke:#9370DB;stroke-width:1;}#my-svg g.clickable{cursor:pointer;}#my-svg g.classGroup rect{fill:#ECECFF;stroke:#9370DB;}#my-svg g.classGroup line{stroke:#9370DB;stroke-width:1;}#my-svg .classLabel .box{stroke:none;stroke-width:0;fill:#ECECFF;opacity:0.5;}#my-svg .classLabel .label{fill:#9370DB;font-size:10px;}#my-svg .relation{stroke:#333333;stroke-width:1;fill:none;}#my-svg .dashed-line{stroke-dasharray:3;}#my-svg .dotted-line{stroke-dasharray:1 2;}#my-svg [id$="-compositionStart"],#my-svg .composition{fill:#333333!important;stroke:#333333!important;stroke-width:1;}#my-svg [id$="-compositionEnd"],#my-svg .composition{fill:#333333!important;stroke:#333333!important;stroke-width:1;}#my-svg [id$="-dependencyStart"],#my-svg .dependency{fill:#333333!important;stroke:#333333!important;stroke-width:1;}#my-svg [id$="-dependencyEnd"],#my-svg .dependency{fill:#333333!important;stroke:#333333!important;stroke-width:1;}#my-svg [id$="-extensionStart"],#my-svg .extension{fill:transparent!important;stroke:#333333!important;stroke-width:1;}#my-svg [id$="-extensionEnd"],#my-svg .extension{fill:transparent!important;stroke:#333333!important;stroke-width:1;}#my-svg [id$="-aggregationStart"],#my-svg .aggregation{fill:transparent!important;stroke:#333333!important;stroke-width:1;}#my-svg [id$="-aggregationEnd"],#my-svg .aggregation{fill:transparent!important;stroke:#333333!important;stroke-width:1;}#my-svg [id$="-lollipopStart"],#my-svg .lollipop{fill:#ECECFF!important;stroke:#333333!important;stroke-width:1;}#my-svg [id$="-lollipopEnd"],#my-svg .lollipop{fill:#ECECFF!important;stroke:#333333!important;stroke-width:1;}#my-svg .edgeTerminals{font-size:11px;line-height:initial;}#my-svg .classTitleText{text-anchor:middle;font-size:18px;fill:#333;}#my-svg .edgeLabel[data-look="neo"]{background-color:rgba(232,232,232, 0.8);text-align:center;}#my-svg .edgeLabel[data-look="neo"] p{background-color:rgba(232,232,232, 0.8);}#my-svg .edgeLabel[data-look="neo"] rect{opacity:0.5;background-color:rgba(232,232,232, 0.8);fill:rgba(232,232,232, 0.8);}#my-svg .label-icon{display:inline-block;height:1em;overflow:visible;vertical-align:-0.125em;}#my-svg .node .label-icon path{fill:currentColor;stroke:revert;stroke-width:revert;}#my-svg .node .neo-node{stroke:#9370DB;}#my-svg [data-look="neo"].node rect,#my-svg [data-look="neo"].cluster rect,#my-svg [data-look="neo"].node polygon{stroke:#9370DB;filter:drop-shadow(1px 2px 2px rgba(185, 185, 185, 1));}#my-svg [data-look="neo"].node path{stroke:#9370DB;stroke-width:1px;}#my-svg [data-look="neo"].node .outer-path{filter:drop-shadow(1px 2px 2px rgba(185, 185, 185, 1));}#my-svg [data-look="neo"].node .neo-line path{stroke:#9370DB;filter:none;}#my-svg [data-look="neo"].node circle{stroke:#9370DB;filter:drop-shadow(1px 2px 2px rgba(185, 185, 185, 1));}#my-svg [data-look="neo"].node circle .state-start{fill:#000000;}#my-svg [data-look="neo"].icon-shape .icon{fill:#9370DB;filter:drop-shadow(1px 2px 2px rgba(185, 185, 185, 1));}#my-svg [data-look="neo"].icon-shape .icon-neo path{stroke:#9370DB;filter:drop-shadow(1px 2px 2px rgba(185, 185, 185, 1));}#my-svg :root{--mermaid-font-family:"trebuchet ms",verdana,arial,sans-serif;}</style><g><defs><marker id="my-svg_class-aggregationStart" class="marker aggregation class" refX="18" refY="7" markerWidth="190" markerHeight="240" orient="auto"><path d="M 18,7 L9,13 L1,7 L9,1 Z"/></marker></defs><defs><marker id="my-svg_class-aggregationEnd" class="marker aggregation class" refX="1" refY="7" markerWidth="20" markerHeight="28" orient="auto"><path d="M 18,7 L9,13 L1,7 L9,1 Z"/></marker></defs><defs><marker id="my-svg_class-aggregationStart-margin" class="marker aggregation class" refX="15" refY="7" markerWidth="190" markerHeight="240" orient="auto" markerUnits="userSpaceOnUse"><path d="M 18,7 L9,13 L1,7 L9,1 Z" style="stroke-width: 2;"/></marker></defs><defs><marker id="my-svg_class-aggregationEnd-margin" class="marker aggregation class" refX="1" refY="7" markerWidth="20" markerHeight="28" orient="auto" markerUnits="userSpaceOnUse"><path d="M 18,7 L9,13 L1,7 L9,1 Z" style="stroke-width: 2;"/></marker></defs><defs><marker id="my-svg_class-extensionStart" class="marker extension class" refX="18" refY="7" markerWidth="20" markerHeight="28" orient="auto" markerUnits="userSpaceOnUse"><path d="M 1,7 L18,13 V 1 Z"/></marker></defs><defs><marker id="my-svg_class-extensionEnd" class="marker extension class" refX="1" refY="7" markerWidth="20" markerHeight="28" orient="auto"><path d="M 1,1 V 13 L18,7 Z"/></marker></defs><marker id="my-svg_class-extensionStart-margin" class="marker extension class" refX="18" refY="7" markerWidth="20" markerHeight="28" orient="auto" markerUnits="userSpaceOnUse" viewBox="0 0 20 14"><polygon points="10,7 18,13 18,1" style="stroke-width: 2; stroke-dasharray: 0;"/></marker><defs><marker id="my-svg_class-extensionEnd-margin" class="marker extension class" refX="9" refY="7" markerWidth="20" markerHeight="28" orient="auto" markerUnits="userSpaceOnUse" viewBox="0 0 20 14"><polygon points="10,1 10,13 18,7" style="stroke-width: 2; stroke-dasharray: 0;"/></marker></defs><defs><marker id="my-svg_class-compositionStart" class="marker composition class" refX="18" refY="7" markerWidth="190" markerHeight="240" orient="auto"><path d="M 18,7 L9,13 L1,7 L9,1 Z"/></marker></defs><defs><marker id="my-svg_class-compositionEnd" class="marker composition class" refX="1" refY="7" markerWidth="20" markerHeight="28" orient="auto"><path d="M 18,7 L9,13 L1,7 L9,1 Z"/></marker></defs><defs><marker id="my-svg_class-compositionStart-margin" class="marker composition class" refX="15" refY="7" markerWidth="190" markerHeight="240" orient="auto" markerUnits="userSpaceOnUse"><path viewBox="0 0 15 15" d="M 18,7 L9,13 L1,7 L9,1 Z" style="stroke-width: 0;"/></marker></defs><defs><marker id="my-svg_class-compositionEnd-margin" class="marker composition class" refX="3.5" refY="7" markerWidth="20" markerHeight="28" orient="auto" markerUnits="userSpaceOnUse"><path d="M 18,7 L9,13 L1,7 L9,1 Z" style="stroke-width: 0;"/></marker></defs><defs><marker id="my-svg_class-dependencyStart" class="marker dependency class" refX="6" refY="7" markerWidth="190" markerHeight="240" orient="auto"><path d="M 5,7 L9,13 L1,7 L9,1 Z"/></marker></defs><defs><marker id="my-svg_class-dependencyEnd" class="marker dependency class" refX="13" refY="7" markerWidth="20" markerHeight="28" orient="auto"><path d="M 18,7 L9,13 L14,7 L9,1 Z"/></marker></defs><defs><marker id="my-svg_class-dependencyStart-margin" class="marker dependency class" refX="4" refY="7" markerWidth="190" markerHeight="240" orient="auto" markerUnits="userSpaceOnUse"><path d="M 5,7 L9,13 L1,7 L9,1 Z" style="stroke-width: 0;"/></marker></defs><defs><marker id="my-svg_class-dependencyEnd-margin" class="marker dependency class" refX="16" refY="7" markerWidth="20" markerHeight="28" orient="auto" markerUnits="userSpaceOnUse"><path d="M 18,7 L9,13 L14,7 L9,1 Z" style="stroke-width: 0;"/></marker></defs><defs><marker id="my-svg_class-lollipopStart" class="marker lollipop class" refX="13" refY="7" markerWidth="190" markerHeight="240" orient="auto"><circle fill="transparent" cx="7" cy="7" r="6"/></marker></defs><defs><marker id="my-svg_class-lollipopEnd" class="marker lollipop class" refX="1" refY="7" markerWidth="190" markerHeight="240" orient="auto"><circle fill="transparent" cx="7" cy="7" r="6"/></marker></defs><defs><marker id="my-svg_class-lollipopStart-margin" class="marker lollipop class" refX="13" refY="7" markerWidth="190" markerHeight="240" orient="auto" markerUnits="userSpaceOnUse"><circle fill="transparent" cx="7" cy="7" r="6" stroke-width="2"/></marker></defs><defs><marker id="my-svg_class-lollipopEnd-margin" class="marker lollipop class" refX="1" refY="7" markerWidth="190" markerHeight="240" orient="auto" markerUnits="userSpaceOnUse"><circle fill="transparent" cx="7" cy="7" r="6" stroke-width="2"/></marker></defs><g class="root"><g class="clusters"><g class="cluster undefined" id="my-svg-Presentation_Layer" data-look="classic"><rect style="" x="293.4140625" y="8" width="260.515625" height="134"/><g class="cluster-label" transform="translate(354.2890625, 8)"><foreignObject width="138.765625" height="24"><div xmlns="http://www.w3.org/1999/xhtml" style="display: table-cell; white-space: nowrap; line-height: 1.5;"><span class="nodeLabel"><p>Presentation_Layer</p></span></div></foreignObject></g></g><g class="cluster undefined" id="my-svg-Business_Logic_Layer" data-look="classic"><rect style="" x="49.7890625" y="216" width="762.390625" height="268"/><g class="cluster-label" transform="translate(350.484375, 216)"><foreignObject width="161" height="24"><div xmlns="http://www.w3.org/1999/xhtml" style="display: table-cell; white-space: nowrap; line-height: 1.5;"><span class="nodeLabel"><p>Business_Logic_Layer</p></span></div></foreignObject></g></g><g class="cluster undefined" id="my-svg-Persistence_Layer" data-look="classic"><rect style="" x="8" y="534" width="845.96875" height="134"/><g class="cluster-label" transform="translate(364.7265625, 534)"><foreignObject width="132.515625" height="24"><div xmlns="http://www.w3.org/1999/xhtml" style="display: table-cell; white-space: nowrap; line-height: 1.5;"><span class="nodeLabel"><p>Persistence_Layer</p></span></div></foreignObject></g></g></g><g class="edgePaths"><path d="M353.75,117L353.75,121.167C353.75,125.333,353.75,133.667,353.75,144C353.75,154.333,353.75,166.667,353.75,179C353.75,191.333,353.75,203.667,356.821,213.256C359.893,222.845,366.036,229.69,369.107,233.112L372.179,236.535" id="my-svg-id_API_HBnBFacade_1" class="edge-thickness-normal edge-pattern-solid relation" style=";;;" data-edge="true" data-et="edge" data-id="id_API_HBnBFacade_1" data-points="W3sieCI6MzUzLjc1LCJ5IjoxMTd9LHsieCI6MzUzLjc1LCJ5IjoxNDJ9LHsieCI6MzUzLjc1LCJ5IjoxNzl9LHsieCI6MzUzLjc1LCJ5IjoyMTZ9LHsieCI6Mzc2LjE4NjE1OTA0ODUwNzUsInkiOjI0MX1d" data-look="classic" marker-end="url(#my-svg_class-dependencyEnd)"/><path d="M474.008,117L474.008,121.167C474.008,125.333,474.008,133.667,474.008,144C474.008,154.333,474.008,166.667,474.008,179C474.008,191.333,474.008,203.667,470.936,213.256C467.865,222.845,461.722,229.69,458.651,233.112L455.579,236.535" id="my-svg-id_Services_HBnBFacade_2" class="edge-thickness-normal edge-pattern-solid relation" style=";;;" data-edge="true" data-et="edge" data-id="id_Services_HBnBFacade_2" data-points="W3sieCI6NDc0LjAwNzgxMjUsInkiOjExN30seyJ4Ijo0NzQuMDA3ODEyNSwieSI6MTQyfSx7IngiOjQ3NC4wMDc4MTI1LCJ5IjoxNzl9LHsieCI6NDc0LjAwNzgxMjUsInkiOjIxNn0seyJ4Ijo0NTEuNTcxNjUzNDUxNDkyNSwieSI6MjQxfV0=" data-look="classic" marker-end="url(#my-svg_class-dependencyEnd)"/><path d="M352.09,296.832L312.505,305.693C272.919,314.555,193.749,332.277,154.163,344.305C114.578,356.333,114.578,362.667,114.578,365.833L114.578,369" id="my-svg-id_HBnBFacade_User_3" class="edge-thickness-normal edge-pattern-solid relation" style=";;;" data-edge="true" data-et="edge" data-id="id_HBnBFacade_User_3" data-points="W3sieCI6MzUyLjA4OTg0Mzc1LCJ5IjoyOTYuODMxNzk1NDYwNzc0NDZ9LHsieCI6MTE0LjU3ODEyNSwieSI6MzUwfSx7IngiOjExNC41NzgxMjUsInkiOjM3NX1d" data-look="classic" marker-end="url(#my-svg_class-dependencyEnd)"/><path d="M352.09,323.182L345.217,327.652C338.344,332.121,324.598,341.061,317.725,348.697C310.852,356.333,310.852,362.667,310.852,365.833L310.852,369" id="my-svg-id_HBnBFacade_Place_4" class="edge-thickness-normal edge-pattern-solid relation" style=";;;" data-edge="true" data-et="edge" data-id="id_HBnBFacade_Place_4" data-points="W3sieCI6MzUyLjA4OTg0Mzc1LCJ5IjozMjMuMTgyMjE4MDA5NDc4N30seyJ4IjozMTAuODUxNTYyNSwieSI6MzUwfSx7IngiOjMxMC44NTE1NjI1LCJ5IjozNzV9XQ==" data-look="classic" marker-end="url(#my-svg_class-dependencyEnd)"/><path d="M475.668,323.182L482.541,327.652C489.414,332.121,503.16,341.061,510.033,348.697C516.906,356.333,516.906,362.667,516.906,365.833L516.906,369" id="my-svg-id_HBnBFacade_Review_5" class="edge-thickness-normal edge-pattern-solid relation" style=";;;" data-edge="true" data-et="edge" data-id="id_HBnBFacade_Review_5" data-points="W3sieCI6NDc1LjY2Nzk2ODc1LCJ5IjozMjMuMTgyMjE4MDA5NDc4N30seyJ4Ijo1MTYuOTA2MjUsInkiOjM1MH0seyJ4Ijo1MTYuOTA2MjUsInkiOjM3NX1d" data-look="classic" marker-end="url(#my-svg_class-dependencyEnd)"/><path d="M475.668,295.948L518.66,304.956C561.651,313.965,647.634,331.983,690.626,344.158C733.617,356.333,733.617,362.667,733.617,365.833L733.617,369" id="my-svg-id_HBnBFacade_Amenity_6" class="edge-thickness-normal edge-pattern-solid relation" style=";;;" data-edge="true" data-et="edge" data-id="id_HBnBFacade_Amenity_6" data-points="W3sieCI6NDc1LjY2Nzk2ODc1LCJ5IjoyOTUuOTQ3Njc0NDg5NjMzODd9LHsieCI6NzMzLjYxNzE4NzUsInkiOjM1MH0seyJ4Ijo3MzMuNjE3MTg3NSwieSI6Mzc1fV0=" data-look="classic" marker-end="url(#my-svg_class-dependencyEnd)"/><path d="M114.578,459L114.578,463.167C114.578,467.333,114.578,475.667,114.578,484C114.578,492.333,114.578,500.667,114.578,509C114.578,517.333,114.578,525.667,114.578,533C114.578,540.333,114.578,546.667,114.578,549.833L114.578,553" id="my-svg-id_User_UserRepository_7" class="edge-thickness-normal edge-pattern-solid relation" style=";;;" data-edge="true" data-et="edge" data-id="id_User_UserRepository_7" data-points="W3sieCI6MTE0LjU3ODEyNSwieSI6NDU5fSx7IngiOjExNC41NzgxMjUsInkiOjQ4NH0seyJ4IjoxMTQuNTc4MTI1LCJ5Ijo1MDl9LHsieCI6MTE0LjU3ODEyNSwieSI6NTM0fSx7IngiOjExNC41NzgxMjUsInkiOjU1OX1d" data-look="classic" marker-end="url(#my-svg_class-dependencyEnd)"/><path d="M310.852,459L310.852,463.167C310.852,467.333,310.852,475.667,310.852,484C310.852,492.333,310.852,500.667,310.852,509C310.852,517.333,310.852,525.667,310.852,533C310.852,540.333,310.852,546.667,310.852,549.833L310.852,553" id="my-svg-id_Place_PlaceRepository_8" class="edge-thickness-normal edge-pattern-solid relation" style=";;;" data-edge="true" data-et="edge" data-id="id_Place_PlaceRepository_8" data-points="W3sieCI6MzEwLjg1MTU2MjUsInkiOjQ1OX0seyJ4IjozMTAuODUxNTYyNSwieSI6NDg0fSx7IngiOjMxMC44NTE1NjI1LCJ5Ijo1MDl9LHsieCI6MzEwLjg1MTU2MjUsInkiOjUzNH0seyJ4IjozMTAuODUxNTYyNSwieSI6NTU5fV0=" data-look="classic" marker-end="url(#my-svg_class-dependencyEnd)"/><path d="M516.906,459L516.906,463.167C516.906,467.333,516.906,475.667,516.906,484C516.906,492.333,516.906,500.667,516.906,509C516.906,517.333,516.906,525.667,516.906,533C516.906,540.333,516.906,546.667,516.906,549.833L516.906,553" id="my-svg-id_Review_ReviewRepository_9" class="edge-thickness-normal edge-pattern-solid relation" style=";;;" data-edge="true" data-et="edge" data-id="id_Review_ReviewRepository_9" data-points="W3sieCI6NTE2LjkwNjI1LCJ5Ijo0NTl9LHsieCI6NTE2LjkwNjI1LCJ5Ijo0ODR9LHsieCI6NTE2LjkwNjI1LCJ5Ijo1MDl9LHsieCI6NTE2LjkwNjI1LCJ5Ijo1MzR9LHsieCI6NTE2LjkwNjI1LCJ5Ijo1NTl9XQ==" data-look="classic" marker-end="url(#my-svg_class-dependencyEnd)"/><path d="M733.617,459L733.617,463.167C733.617,467.333,733.617,475.667,733.617,484C733.617,492.333,733.617,500.667,733.617,509C733.617,517.333,733.617,525.667,733.617,533C733.617,540.333,733.617,546.667,733.617,549.833L733.617,553" id="my-svg-id_Amenity_AmenityRepository_10" class="edge-thickness-normal edge-pattern-solid relation" style=";;;" data-edge="true" data-et="edge" data-id="id_Amenity_AmenityRepository_10" data-points="W3sieCI6NzMzLjYxNzE4NzUsInkiOjQ1OX0seyJ4Ijo3MzMuNjE3MTg3NSwieSI6NDg0fSx7IngiOjczMy42MTcxODc1LCJ5Ijo1MDl9LHsieCI6NzMzLjYxNzE4NzUsInkiOjUzNH0seyJ4Ijo3MzMuNjE3MTg3NSwieSI6NTU5fV0=" data-look="classic" marker-end="url(#my-svg_class-dependencyEnd)"/></g><g class="edgeLabels"><g class="edgeLabel" transform="translate(353.75, 179)"><g class="label" data-id="id_API_HBnBFacade_1" transform="translate(-33.796875, -12)"><foreignObject width="67.59375" height="24"><div xmlns="http://www.w3.org/1999/xhtml" class="labelBkg" style="display: table-cell; white-space: nowrap; line-height: 1.5; max-width: 200px; text-align: center;"><span class="edgeLabel"><p>Requests</p></span></div></foreignObject></g></g><g class="edgeLabel" transform="translate(474.0078125, 179)"><g class="label" data-id="id_Services_HBnBFacade_2" transform="translate(-33.796875, -12)"><foreignObject width="67.59375" height="24"><div xmlns="http://www.w3.org/1999/xhtml" class="labelBkg" style="display: table-cell; white-space: nowrap; line-height: 1.5; max-width: 200px; text-align: center;"><span class="edgeLabel"><p>Requests</p></span></div></foreignObject></g></g><g class="edgeLabel"><g class="label" data-id="id_HBnBFacade_User_3" transform="translate(0, 0)"><foreignObject width="0" height="0"><div xmlns="http://www.w3.org/1999/xhtml" class="labelBkg" style="display: table-cell; white-space: nowrap; line-height: 1.5; max-width: 200px; text-align: center;"><span class="edgeLabel"></span></div></foreignObject></g></g><g class="edgeLabel"><g class="label" data-id="id_HBnBFacade_Place_4" transform="translate(0, 0)"><foreignObject width="0" height="0"><div xmlns="http://www.w3.org/1999/xhtml" class="labelBkg" style="display: table-cell; white-space: nowrap; line-height: 1.5; max-width: 200px; text-align: center;"><span class="edgeLabel"></span></div></foreignObject></g></g><g class="edgeLabel"><g class="label" data-id="id_HBnBFacade_Review_5" transform="translate(0, 0)"><foreignObject width="0" height="0"><div xmlns="http://www.w3.org/1999/xhtml" class="labelBkg" style="display: table-cell; white-space: nowrap; line-height: 1.5; max-width: 200px; text-align: center;"><span class="edgeLabel"></span></div></foreignObject></g></g><g class="edgeLabel"><g class="label" data-id="id_HBnBFacade_Amenity_6" transform="translate(0, 0)"><foreignObject width="0" height="0"><div xmlns="http://www.w3.org/1999/xhtml" class="labelBkg" style="display: table-cell; white-space: nowrap; line-height: 1.5; max-width: 200px; text-align: center;"><span class="edgeLabel"></span></div></foreignObject></g></g><g class="edgeLabel"><g class="label" data-id="id_User_UserRepository_7" transform="translate(0, 0)"><foreignObject width="0" height="0"><div xmlns="http://www.w3.org/1999/xhtml" class="labelBkg" style="display: table-cell; white-space: nowrap; line-height: 1.5; max-width: 200px; text-align: center;"><span class="edgeLabel"></span></div></foreignObject></g></g><g class="edgeLabel"><g class="label" data-id="id_Place_PlaceRepository_8" transform="translate(0, 0)"><foreignObject width="0" height="0"><div xmlns="http://www.w3.org/1999/xhtml" class="labelBkg" style="display: table-cell; white-space: nowrap; line-height: 1.5; max-width: 200px; text-align: center;"><span class="edgeLabel"></span></div></foreignObject></g></g><g class="edgeLabel"><g class="label" data-id="id_Review_ReviewRepository_9" transform="translate(0, 0)"><foreignObject width="0" height="0"><div xmlns="http://www.w3.org/1999/xhtml" class="labelBkg" style="display: table-cell; white-space: nowrap; line-height: 1.5; max-width: 200px; text-align: center;"><span class="edgeLabel"></span></div></foreignObject></g></g><g class="edgeLabel"><g class="label" data-id="id_Amenity_AmenityRepository_10" transform="translate(0, 0)"><foreignObject width="0" height="0"><div xmlns="http://www.w3.org/1999/xhtml" class="labelBkg" style="display: table-cell; white-space: nowrap; line-height: 1.5; max-width: 200px; text-align: center;"><span class="edgeLabel"></span></div></foreignObject></g></g></g><g class="nodes"><g class="node default" id="my-svg-classId-API-0" data-look="classic" transform="translate(353.75, 75)"><g class="basic label-container outer-path"><path d="M-25.3359375 -42 L25.3359375 -42 L25.3359375 42 L-25.3359375 42" stroke="none" stroke-width="0" fill="#ECECFF" style=""/><path d="M-25.3359375 -42 C-12.942723070932566 -42, -0.5495086418651312 -42, 25.3359375 -42 M-25.3359375 -42 C-14.688485144970773 -42, -4.041032789941546 -42, 25.3359375 -42 M25.3359375 -42 C25.3359375 -20.91032234535902, 25.3359375 0.1793553092819593, 25.3359375 42 M25.3359375 -42 C25.3359375 -22.598868459015616, 25.3359375 -3.1977369180312323, 25.3359375 42 M25.3359375 42 C8.279482798072703 42, -8.776971903854594 42, -25.3359375 42 M25.3359375 42 C11.450163610191282 42, -2.4356102796174355 42, -25.3359375 42 M-25.3359375 42 C-25.3359375 11.936743181030717, -25.3359375 -18.126513637938565, -25.3359375 -42 M-25.3359375 42 C-25.3359375 17.299460064566386, -25.3359375 -7.401079870867228, -25.3359375 -42" stroke="#9370DB" stroke-width="1.3" fill="none" stroke-dasharray="0 0" style=""/></g><g class="annotation-group text" transform="translate(0, -18)"/><g class="label-group text" transform="translate(-13.3359375, -18)"><g class="label" style="font-weight: bolder" transform="translate(0,-12)"><foreignObject width="26.671875" height="24"><div xmlns="http://www.w3.org/1999/xhtml" style="display: table-cell; white-space: nowrap; line-height: 1.5; max-width: 76px; text-align: center;"><span class="nodeLabel markdown-node-label" style=""><p>API</p></span></div></foreignObject></g></g><g class="members-group text" transform="translate(-13.3359375, 30)"/><g class="methods-group text" transform="translate(-13.3359375, 60)"/><g class="divider" style=""><path d="M-25.3359375 6 C-9.144773535563985 6.000319529600285, 7.04639042887203 6.00063905920057, 25.3359375 6.001 M-25.3359375 6 C-13.902540863832659 6.00022563594965, -2.4691442276653177 6.0004512718993, 25.3359375 6.001" stroke="#9370DB" stroke-width="1.3" fill="none" stroke-dasharray="0 0" style=""/></g><g class="divider" style=""><path d="M-25.3359375 24 C-6.8403957006241605 24.000365006066964, 11.655146098751679 24.000730012133925, 25.3359375 24.001 M-25.3359375 24 C-10.299658758610333 24.00029673815586, 4.7366199827793345 24.000593476311717, 25.3359375 24.001" stroke="#9370DB" stroke-width="1.3" fill="none" stroke-dasharray="0 0" style=""/></g></g><g class="node default" id="my-svg-classId-Services-1" data-look="classic" transform="translate(474.0078125, 75)"><g class="basic label-container outer-path"><path d="M-44.921875 -42 L44.921875 -42 L44.921875 42 L-44.921875 42" stroke="none" stroke-width="0" fill="#ECECFF" style=""/><path d="M-44.921875 -42 C-16.502667394252345 -42, 11.91654021149531 -42, 44.921875 -42 M-44.921875 -42 C-17.872064739287424 -42, 9.177745521425152 -42, 44.921875 -42 M44.921875 -42 C44.921875 -16.394237151047133, 44.921875 9.211525697905735, 44.921875 42 M44.921875 -42 C44.921875 -20.388544736259554, 44.921875 1.2229105274808916, 44.921875 42 M44.921875 42 C22.486792347631578 42, 0.051709695263156163 42, -44.921875 42 M44.921875 42 C25.50598239090217 42, 6.090089781804338 42, -44.921875 42 M-44.921875 42 C-44.921875 22.262615413243804, -44.921875 2.5252308264876078, -44.921875 -42 M-44.921875 42 C-44.921875 14.913823625070108, -44.921875 -12.172352749859783, -44.921875 -42" stroke="#9370DB" stroke-width="1.3" fill="none" stroke-dasharray="0 0" style=""/></g><g class="annotation-group text" transform="translate(0, -18)"/><g class="label-group text" transform="translate(-32.921875, -18)"><g class="label" style="font-weight: bolder" transform="translate(0,-12)"><foreignObject width="65.84375" height="24"><div xmlns="http://www.w3.org/1999/xhtml" style="display: table-cell; white-space: nowrap; line-height: 1.5; max-width: 104px; text-align: center;"><span class="nodeLabel markdown-node-label" style=""><p>Services</p></span></div></foreignObject></g></g><g class="members-group text" transform="translate(-32.921875, 30)"/><g class="methods-group text" transform="translate(-32.921875, 60)"/><g class="divider" style=""><path d="M-44.921875 6 C-9.713725549080557 6.00039188201128, 25.494423901838886 6.00078376402256, 44.921875 6.001 M-44.921875 6 C-17.738421622253483 6.000302563654987, 9.445031755493034 6.000605127309974, 44.921875 6.001" stroke="#9370DB" stroke-width="1.3" fill="none" stroke-dasharray="0 0" style=""/></g><g class="divider" style=""><path d="M-44.921875 24 C-25.062416599784232 24.00022104440654, -5.202958199568464 24.000442088813084, 44.921875 24.001 M-44.921875 24 C-22.00540548317441 24.000255070269404, 0.9110640336511793 24.00051014053881, 44.921875 24.001" stroke="#9370DB" stroke-width="1.3" fill="none" stroke-dasharray="0 0" style=""/></g></g><g class="node default" id="my-svg-classId-HBnBFacade-2" data-look="classic" transform="translate(413.87890625, 283)"><g class="basic label-container outer-path"><path d="M-61.7890625 -42 L61.7890625 -42 L61.7890625 42 L-61.7890625 42" stroke="none" stroke-width="0" fill="#ECECFF" style=""/><path d="M-61.7890625 -42 C-31.223118706815676 -42, -0.6571749136313514 -42, 61.7890625 -42 M-61.7890625 -42 C-17.756472783438916 -42, 26.276116933122168 -42, 61.7890625 -42 M61.7890625 -42 C61.7890625 -22.20930015312853, 61.7890625 -2.418600306257062, 61.7890625 42 M61.7890625 -42 C61.7890625 -17.363262455205895, 61.7890625 7.27347508958821, 61.7890625 42 M61.7890625 42 C28.150180371103012 42, -5.488701757793976 42, -61.7890625 42 M61.7890625 42 C30.92028790270466 42, 0.05151330540932264 42, -61.7890625 42 M-61.7890625 42 C-61.7890625 15.468714093257791, -61.7890625 -11.062571813484418, -61.7890625 -42 M-61.7890625 42 C-61.7890625 19.48707936764825, -61.7890625 -3.0258412647035016, -61.7890625 -42" stroke="#9370DB" stroke-width="1.3" fill="none" stroke-dasharray="0 0" style=""/></g><g class="annotation-group text" transform="translate(0, -18)"/><g class="label-group text" transform="translate(-49.7890625, -18)"><g class="label" style="font-weight: bolder" transform="translate(0,-12)"><foreignObject width="99.578125" height="24"><div xmlns="http://www.w3.org/1999/xhtml" style="display: table-cell; white-space: nowrap; line-height: 1.5; max-width: 136px; text-align: center;"><span class="nodeLabel markdown-node-label" style=""><p>HBnBFacade</p></span></div></foreignObject></g></g><g class="members-group text" transform="translate(-49.7890625, 30)"/><g class="methods-group text" transform="translate(-49.7890625, 60)"/><g class="divider" style=""><path d="M-61.7890625 6 C-22.895636140198533 6.000314727435457, 15.997790219602933 6.000629454870913, 61.7890625 6.001 M-61.7890625 6 C-26.86155547979581 6.000282635029624, 8.065951540408378 6.000565270059248, 61.7890625 6.001" stroke="#9370DB" stroke-width="1.3" fill="none" stroke-dasharray="0 0" style=""/></g><g class="divider" style=""><path d="M-61.7890625 24 C-15.507340455648368 24.000374513871645, 30.774381588703264 24.00074902774329, 61.7890625 24.001 M-61.7890625 24 C-34.164462093586664 24.000223539565813, -6.539861687173335 24.000447079131625, 61.7890625 24.001" stroke="#9370DB" stroke-width="1.3" fill="none" stroke-dasharray="0 0" style=""/></g></g><g class="node default" id="my-svg-classId-User-3" data-look="classic" transform="translate(114.578125, 417)"><g class="basic label-container outer-path"><path d="M-29.7890625 -42 L29.7890625 -42 L29.7890625 42 L-29.7890625 42" stroke="none" stroke-width="0" fill="#ECECFF" style=""/><path d="M-29.7890625 -42 C-13.45563131779836 -42, 2.877799864403279 -42, 29.7890625 -42 M-29.7890625 -42 C-10.820639964761288 -42, 8.147782570477425 -42, 29.7890625 -42 M29.7890625 -42 C29.7890625 -12.684660910623546, 29.7890625 16.63067817875291, 29.7890625 42 M29.7890625 -42 C29.7890625 -19.860600532293002, 29.7890625 2.2787989354139953, 29.7890625 42 M29.7890625 42 C7.699965102689909 42, -14.389132294620183 42, -29.7890625 42 M29.7890625 42 C6.517045178836465 42, -16.75497214232707 42, -29.7890625 42 M-29.7890625 42 C-29.7890625 19.828141415920765, -29.7890625 -2.34371716815847, -29.7890625 -42 M-29.7890625 42 C-29.7890625 21.86145630281238, -29.7890625 1.7229126056247566, -29.7890625 -42" stroke="#9370DB" stroke-width="1.3" fill="none" stroke-dasharray="0 0" style=""/></g><g class="annotation-group text" transform="translate(0, -18)"/><g class="label-group text" transform="translate(-17.7890625, -18)"><g class="label" style="font-weight: bolder" transform="translate(0,-12)"><foreignObject width="35.578125" height="24"><div xmlns="http://www.w3.org/1999/xhtml" style="display: table-cell; white-space: nowrap; line-height: 1.5; max-width: 81px; text-align: center;"><span class="nodeLabel markdown-node-label" style=""><p>User</p></span></div></foreignObject></g></g><g class="members-group text" transform="translate(-17.7890625, 30)"/><g class="methods-group text" transform="translate(-17.7890625, 60)"/><g class="divider" style=""><path d="M-29.7890625 6 C-14.863160850611651 6.00025052654224, 0.06274079877669791 6.00050105308448, 29.7890625 6.001 M-29.7890625 6 C-8.610303195841428 6.0003554787819215, 12.568456108317143 6.000710957563843, 29.7890625 6.001" stroke="#9370DB" stroke-width="1.3" fill="none" stroke-dasharray="0 0" style=""/></g><g class="divider" style=""><path d="M-29.7890625 24 C-11.911819596609156 24.000300063872494, 5.9654233067816875 24.00060012774499, 29.7890625 24.001 M-29.7890625 24 C-12.183312146099865 24.000295506955847, 5.422438207800269 24.0005910139117, 29.7890625 24.001" stroke="#9370DB" stroke-width="1.3" fill="none" stroke-dasharray="0 0" style=""/></g></g><g class="node default" id="my-svg-classId-Place-4" data-look="classic" transform="translate(310.8515625, 417)"><g class="basic label-container outer-path"><path d="M-32.90625 -42 L32.90625 -42 L32.90625 42 L-32.90625 42" stroke="none" stroke-width="0" fill="#ECECFF" style=""/><path d="M-32.90625 -42 C-11.261216073131088 -42, 10.383817853737824 -42, 32.90625 -42 M-32.90625 -42 C-16.4348951024048 -42, 0.0364597951904031 -42, 32.90625 -42 M32.90625 -42 C32.90625 -11.392855580942452, 32.90625 19.214288838115095, 32.90625 42 M32.90625 -42 C32.90625 -14.983992865381438, 32.90625 12.032014269237123, 32.90625 42 M32.90625 42 C11.56063765227615 42, -9.784974695447701 42, -32.90625 42 M32.90625 42 C7.4414938929904935 42, -18.023262214019013 42, -32.90625 42 M-32.90625 42 C-32.90625 24.11220520895704, -32.90625 6.224410417914079, -32.90625 -42 M-32.90625 42 C-32.90625 19.555363891739646, -32.90625 -2.889272216520709, -32.90625 -42" stroke="#9370DB" stroke-width="1.3" fill="none" stroke-dasharray="0 0" style=""/></g><g class="annotation-group text" transform="translate(0, -18)"/><g class="label-group text" transform="translate(-20.90625, -18)"><g class="label" style="font-weight: bolder" transform="translate(0,-12)"><foreignObject width="41.8125" height="24"><div xmlns="http://www.w3.org/1999/xhtml" style="display: table-cell; white-space: nowrap; line-height: 1.5; max-width: 85px; text-align: center;"><span class="nodeLabel markdown-node-label" style=""><p>Place</p></span></div></foreignObject></g></g><g class="members-group text" transform="translate(-20.90625, 30)"/><g class="methods-group text" transform="translate(-20.90625, 60)"/><g class="divider" style=""><path d="M-32.90625 6 C-9.442861565433144 6.000356518722652, 14.020526869133711 6.000713037445305, 32.90625 6.001 M-32.90625 6 C-12.67769265447117 6.000307366493379, 7.550864691057662 6.000614732986759, 32.90625 6.001" stroke="#9370DB" stroke-width="1.3" fill="none" stroke-dasharray="0 0" style=""/></g><g class="divider" style=""><path d="M-32.90625 24 C-16.843598115514197 24.000244066885234, -0.7809462310283948 24.00048813377047, 32.90625 24.001 M-32.90625 24 C-10.663189413464966 24.000337976229236, 11.579871173070067 24.000675952458472, 32.90625 24.001" stroke="#9370DB" stroke-width="1.3" fill="none" stroke-dasharray="0 0" style=""/></g></g><g class="node default" id="my-svg-classId-Review-5" data-look="classic" transform="translate(516.90625, 417)"><g class="basic label-container outer-path"><path d="M-39.5703125 -42 L39.5703125 -42 L39.5703125 42 L-39.5703125 42" stroke="none" stroke-width="0" fill="#ECECFF" style=""/><path d="M-39.5703125 -42 C-8.371524565353177 -42, 22.827263369293647 -42, 39.5703125 -42 M-39.5703125 -42 C-9.704446762745157 -42, 20.161418974509687 -42, 39.5703125 -42 M39.5703125 -42 C39.5703125 -18.965263548618996, 39.5703125 4.0694729027620085, 39.5703125 42 M39.5703125 -42 C39.5703125 -15.444796011430135, 39.5703125 11.11040797713973, 39.5703125 42 M39.5703125 42 C17.734789544783563 42, -4.100733410432873 42, -39.5703125 42 M39.5703125 42 C17.798608330642846 42, -3.9730958387143076 42, -39.5703125 42 M-39.5703125 42 C-39.5703125 16.61349778978603, -39.5703125 -8.773004420427938, -39.5703125 -42 M-39.5703125 42 C-39.5703125 19.380851230952807, -39.5703125 -3.238297538094386, -39.5703125 -42" stroke="#9370DB" stroke-width="1.3" fill="none" stroke-dasharray="0 0" style=""/></g><g class="annotation-group text" transform="translate(0, -18)"/><g class="label-group text" transform="translate(-27.5703125, -18)"><g class="label" style="font-weight: bolder" transform="translate(0,-12)"><foreignObject width="55.140625" height="24"><div xmlns="http://www.w3.org/1999/xhtml" style="display: table-cell; white-space: nowrap; line-height: 1.5; max-width: 99px; text-align: center;"><span class="nodeLabel markdown-node-label" style=""><p>Review</p></span></div></foreignObject></g></g><g class="members-group text" transform="translate(-27.5703125, 30)"/><g class="methods-group text" transform="translate(-27.5703125, 60)"/><g class="divider" style=""><path d="M-39.5703125 6 C-15.429786702902959 6.000305033297337, 8.710739094194082 6.0006100665946756, 39.5703125 6.001 M-39.5703125 6 C-14.863483548831034 6.000312188954171, 9.843345402337931 6.000624377908342, 39.5703125 6.001" stroke="#9370DB" stroke-width="1.3" fill="none" stroke-dasharray="0 0" style=""/></g><g class="divider" style=""><path d="M-39.5703125 24 C-13.518923497993605 24.000329178459257, 12.53246550401279 24.00065835691851, 39.5703125 24.001 M-39.5703125 24 C-8.217887635127784 24.00039616094597, 23.13453722974443 24.000792321891947, 39.5703125 24.001" stroke="#9370DB" stroke-width="1.3" fill="none" stroke-dasharray="0 0" style=""/></g></g><g class="node default" id="my-svg-classId-Amenity-6" data-look="classic" transform="translate(733.6171875, 417)"><g class="basic label-container outer-path"><path d="M-43.5625 -42 L43.5625 -42 L43.5625 42 L-43.5625 42" stroke="none" stroke-width="0" fill="#ECECFF" style=""/><path d="M-43.5625 -42 C-20.150046146736464 -42, 3.262407706527071 -42, 43.5625 -42 M-43.5625 -42 C-20.526654883936995 -42, 2.5091902321260093 -42, 43.5625 -42 M43.5625 -42 C43.5625 -23.65615187004143, 43.5625 -5.312303740082861, 43.5625 42 M43.5625 -42 C43.5625 -23.270619457005566, 43.5625 -4.5412389140111316, 43.5625 42 M43.5625 42 C22.64841221758716 42, 1.7343244351743223 42, -43.5625 42 M43.5625 42 C12.245819752950293 42, -19.070860494099414 42, -43.5625 42 M-43.5625 42 C-43.5625 15.510245329263054, -43.5625 -10.979509341473893, -43.5625 -42 M-43.5625 42 C-43.5625 18.640755360948685, -43.5625 -4.718489278102631, -43.5625 -42" stroke="#9370DB" stroke-width="1.3" fill="none" stroke-dasharray="0 0" style=""/></g><g class="annotation-group text" transform="translate(0, -18)"/><g class="label-group text" transform="translate(-31.5625, -18)"><g class="label" style="font-weight: bolder" transform="translate(0,-12)"><foreignObject width="63.125" height="24"><div xmlns="http://www.w3.org/1999/xhtml" style="display: table-cell; white-space: nowrap; line-height: 1.5; max-width: 106px; text-align: center;"><span class="nodeLabel markdown-node-label" style=""><p>Amenity</p></span></div></foreignObject></g></g><g class="members-group text" transform="translate(-31.5625, 30)"/><g class="methods-group text" transform="translate(-31.5625, 60)"/><g class="divider" style=""><path d="M-43.5625 6 C-22.419342040983313 6.000242676131524, -1.2761840819666261 6.0004853522630475, 43.5625 6.001 M-43.5625 6 C-24.005660661252946 6.000224468744204, -4.448821322505893 6.000448937488407, 43.5625 6.001" stroke="#9370DB" stroke-width="1.3" fill="none" stroke-dasharray="0 0" style=""/></g><g class="divider" style=""><path d="M-43.5625 24 C-10.355457541967098 24.000381142524628, 22.851584916065804 24.00076228504925, 43.5625 24.001 M-43.5625 24 C-9.752735575315882 24.000388060423813, 24.057028849368237 24.000776120847625, 43.5625 24.001" stroke="#9370DB" stroke-width="1.3" fill="none" stroke-dasharray="0 0" style=""/></g></g><g class="node default" id="my-svg-classId-UserRepository-7" data-look="classic" transform="translate(114.578125, 601)"><g class="basic label-container outer-path"><path d="M-71.578125 -42 L71.578125 -42 L71.578125 42 L-71.578125 42" stroke="none" stroke-width="0" fill="#ECECFF" style=""/><path d="M-71.578125 -42 C-28.015801131584283 -42, 15.546522736831434 -42, 71.578125 -42 M-71.578125 -42 C-31.08262344914008 -42, 9.41287810171984 -42, 71.578125 -42 M71.578125 -42 C71.578125 -16.132498229244252, 71.578125 9.735003541511496, 71.578125 42 M71.578125 -42 C71.578125 -24.072222242597224, 71.578125 -6.144444485194448, 71.578125 42 M71.578125 42 C22.938456034649676 42, -25.70121293070065 42, -71.578125 42 M71.578125 42 C18.617059899853103 42, -34.34400520029379 42, -71.578125 42 M-71.578125 42 C-71.578125 21.875396887097306, -71.578125 1.7507937741946122, -71.578125 -42 M-71.578125 42 C-71.578125 16.56119941356183, -71.578125 -8.87760117287634, -71.578125 -42" stroke="#9370DB" stroke-width="1.3" fill="none" stroke-dasharray="0 0" style=""/></g><g class="annotation-group text" transform="translate(0, -18)"/><g class="label-group text" transform="translate(-59.578125, -18)"><g class="label" style="font-weight: bolder" transform="translate(0,-12)"><foreignObject width="119.15625" height="24"><div xmlns="http://www.w3.org/1999/xhtml" style="display: table-cell; white-space: nowrap; line-height: 1.5; max-width: 150px; text-align: center;"><span class="nodeLabel markdown-node-label" style=""><p>UserRepository</p></span></div></foreignObject></g></g><g class="members-group text" transform="translate(-59.578125, 30)"/><g class="methods-group text" transform="translate(-59.578125, 60)"/><g class="divider" style=""><path d="M-71.578125 6 C-42.822885864638316 6.000200866110529, -14.067646729276632 6.000401732221057, 71.578125 6.001 M-71.578125 6 C-37.037793829537726 6.000241277144172, -2.4974626590754525 6.000482554288346, 71.578125 6.001" stroke="#9370DB" stroke-width="1.3" fill="none" stroke-dasharray="0 0" style=""/></g><g class="divider" style=""><path d="M-71.578125 24 C-36.06745446968046 24.00024805532787, -0.5567839393609262 24.00049611065574, 71.578125 24.001 M-71.578125 24 C-29.598925995025454 24.000293240420906, 12.380273009949093 24.000586480841807, 71.578125 24.001" stroke="#9370DB" stroke-width="1.3" fill="none" stroke-dasharray="0 0" style=""/></g></g><g class="node default" id="my-svg-classId-PlaceRepository-8" data-look="classic" transform="translate(310.8515625, 601)"><g class="basic label-container outer-path"><path d="M-74.6953125 -42 L74.6953125 -42 L74.6953125 42 L-74.6953125 42" stroke="none" stroke-width="0" fill="#ECECFF" style=""/><path d="M-74.6953125 -42 C-16.24895898612843 -42, 42.19739452774314 -42, 74.6953125 -42 M-74.6953125 -42 C-21.41932229079459 -42, 31.85666791841082 -42, 74.6953125 -42 M74.6953125 -42 C74.6953125 -12.137495241748272, 74.6953125 17.725009516503455, 74.6953125 42 M74.6953125 -42 C74.6953125 -22.299425517709654, 74.6953125 -2.598851035419308, 74.6953125 42 M74.6953125 42 C34.753671856965546 42, -5.187968786068907 42, -74.6953125 42 M74.6953125 42 C40.93288764717336 42, 7.170462794346719 42, -74.6953125 42 M-74.6953125 42 C-74.6953125 11.078806853724927, -74.6953125 -19.842386292550145, -74.6953125 -42 M-74.6953125 42 C-74.6953125 11.359212265878853, -74.6953125 -19.281575468242295, -74.6953125 -42" stroke="#9370DB" stroke-width="1.3" fill="none" stroke-dasharray="0 0" style=""/></g><g class="annotation-group text" transform="translate(0, -18)"/><g class="label-group text" transform="translate(-62.6953125, -18)"><g class="label" style="font-weight: bolder" transform="translate(0,-12)"><foreignObject width="125.390625" height="24"><div xmlns="http://www.w3.org/1999/xhtml" style="display: table-cell; white-space: nowrap; line-height: 1.5; max-width: 155px; text-align: center;"><span class="nodeLabel markdown-node-label" style=""><p>PlaceRepository</p></span></div></foreignObject></g></g><g class="members-group text" transform="translate(-62.6953125, 30)"/><g class="methods-group text" transform="translate(-62.6953125, 60)"/><g class="divider" style=""><path d="M-74.6953125 6 C-18.342676607056724 6.0003772166820575, 38.00995928588655 6.000754433364115, 74.6953125 6.001 M-74.6953125 6 C-18.394477494421686 6.000376869934144, 37.90635751115663 6.00075373986829, 74.6953125 6.001" stroke="#9370DB" stroke-width="1.3" fill="none" stroke-dasharray="0 0" style=""/></g><g class="divider" style=""><path d="M-74.6953125 24 C-36.175088843434686 24.00025784900262, 2.3451348131306275 24.000515698005234, 74.6953125 24.001 M-74.6953125 24 C-26.88433178941706 24.000320040034044, 20.926648921165878 24.000640080068084, 74.6953125 24.001" stroke="#9370DB" stroke-width="1.3" fill="none" stroke-dasharray="0 0" style=""/></g></g><g class="node default" id="my-svg-classId-ReviewRepository-9" data-look="classic" transform="translate(516.90625, 601)"><g class="basic label-container outer-path"><path d="M-81.359375 -42 L81.359375 -42 L81.359375 42 L-81.359375 42" stroke="none" stroke-width="0" fill="#ECECFF" style=""/><path d="M-81.359375 -42 C-27.624909727198663 -42, 26.109555545602674 -42, 81.359375 -42 M-81.359375 -42 C-33.232298654946284 -42, 14.894777690107432 -42, 81.359375 -42 M81.359375 -42 C81.359375 -18.977954784685416, 81.359375 4.0440904306291685, 81.359375 42 M81.359375 -42 C81.359375 -22.822591409734834, 81.359375 -3.6451828194696674, 81.359375 42 M81.359375 42 C44.68618251916122 42, 8.012990038322442 42, -81.359375 42 M81.359375 42 C32.0145240252181 42, -17.330326949563798 42, -81.359375 42 M-81.359375 42 C-81.359375 14.082594450734156, -81.359375 -13.834811098531688, -81.359375 -42 M-81.359375 42 C-81.359375 22.5111624988563, -81.359375 3.0223249977126017, -81.359375 -42" stroke="#9370DB" stroke-width="1.3" fill="none" stroke-dasharray="0 0" style=""/></g><g class="annotation-group text" transform="translate(0, -18)"/><g class="label-group text" transform="translate(-69.359375, -18)"><g class="label" style="font-weight: bolder" transform="translate(0,-12)"><foreignObject width="138.71875" height="24"><div xmlns="http://www.w3.org/1999/xhtml" style="display: table-cell; white-space: nowrap; line-height: 1.5; max-width: 169px; text-align: center;"><span class="nodeLabel markdown-node-label" style=""><p>ReviewRepository</p></span></div></foreignObject></g></g><g class="members-group text" transform="translate(-69.359375, 30)"/><g class="methods-group text" transform="translate(-69.359375, 60)"/><g class="divider" style=""><path d="M-81.359375 6 C-38.877413138254745 6.000261076009137, 3.6045487234905096 6.000522152018274, 81.359375 6.001 M-81.359375 6 C-27.096890204530133 6.000333474075947, 27.165594590939733 6.000666948151894, 81.359375 6.001" stroke="#9370DB" stroke-width="1.3" fill="none" stroke-dasharray="0 0" style=""/></g><g class="divider" style=""><path d="M-81.359375 24 C-45.76175616111097 24.000218767774697, -10.164137322221947 24.000437535549395, 81.359375 24.001 M-81.359375 24 C-28.45734182844376 24.000325113320816, 24.44469134311248 24.000650226641632, 81.359375 24.001" stroke="#9370DB" stroke-width="1.3" fill="none" stroke-dasharray="0 0" style=""/></g></g><g class="node default" id="my-svg-classId-AmenityRepository-10" data-look="classic" transform="translate(733.6171875, 601)"><g class="basic label-container outer-path"><path d="M-85.3515625 -42 L85.3515625 -42 L85.3515625 42 L-85.3515625 42" stroke="none" stroke-width="0" fill="#ECECFF" style=""/><path d="M-85.3515625 -42 C-41.54379898626386 -42, 2.2639645274722824 -42, 85.3515625 -42 M-85.3515625 -42 C-34.929399339671114 -42, 15.492763820657771 -42, 85.3515625 -42 M85.3515625 -42 C85.3515625 -23.949612913241126, 85.3515625 -5.899225826482251, 85.3515625 42 M85.3515625 -42 C85.3515625 -13.500869119575178, 85.3515625 14.998261760849644, 85.3515625 42 M85.3515625 42 C30.61560558518883 42, -24.120351329622338 42, -85.3515625 42 M85.3515625 42 C22.520412737464405 42, -40.31073702507119 42, -85.3515625 42 M-85.3515625 42 C-85.3515625 14.281442199091128, -85.3515625 -13.437115601817744, -85.3515625 -42 M-85.3515625 42 C-85.3515625 17.618839806956196, -85.3515625 -6.762320386087609, -85.3515625 -42" stroke="#9370DB" stroke-width="1.3" fill="none" stroke-dasharray="0 0" style=""/></g><g class="annotation-group text" transform="translate(0, -18)"/><g class="label-group text" transform="translate(-73.3515625, -18)"><g class="label" style="font-weight: bolder" transform="translate(0,-12)"><foreignObject width="146.703125" height="24"><div xmlns="http://www.w3.org/1999/xhtml" style="display: table-cell; white-space: nowrap; line-height: 1.5; max-width: 176px; text-align: center;"><span class="nodeLabel markdown-node-label" style=""><p>AmenityRepository</p></span></div></foreignObject></g></g><g class="members-group text" transform="translate(-73.3515625, 30)"/><g class="methods-group text" transform="translate(-73.3515625, 60)"/><g class="divider" style=""><path d="M-85.3515625 6 C-43.75633609657702 6.000243669976185, -2.161109693154046 6.00048733995237, 85.3515625 6.001 M-85.3515625 6 C-20.063362444676855 6.000382466343574, 45.22483761064629 6.000764932687147, 85.3515625 6.001" stroke="#9370DB" stroke-width="1.3" fill="none" stroke-dasharray="0 0" style=""/></g><g class="divider" style=""><path d="M-85.3515625 24 C-40.855097897841944 24.00026066578806, 3.6413667043161126 24.000521331576117, 85.3515625 24.001 M-85.3515625 24 C-24.23310699602105 24.00035803946474, 36.8853485079579 24.000716078929475, 85.3515625 24.001" stroke="#9370DB" stroke-width="1.3" fill="none" stroke-dasharray="0 0" style=""/></g></g></g></g></g><defs><filter id="my-svg-drop-shadow" height="130%" width="130%"><feDropShadow dx="4" dy="4" stdDeviation="0" flood-opacity="0.06" flood-color="#000000"/></filter></defs><defs><filter id="my-svg-drop-shadow-small" height="150%" width="150%"><feDropShadow dx="2" dy="2" stdDeviation="0" flood-opacity="0.06" flood-color="#000000"/></filter></defs></svg>